<svg width="19" height="18" viewBox="0 0 19 18" fill="none" xmlns="http://www.w3.org/2000/svg">
<g clip-path="url(#clip0_13_12752)">
<path d="M15.8331 15.6016H15.1992V16.2009H15.8331V15.6016Z" fill="#F2A317"/>
<path d="M16.4671 13.801H15.834V14.4013H16.4671V13.801Z" fill="#F2A317"/>
<path d="M3.79994 7.80127H3.16602V8.39978H3.79994V7.80127Z" fill="#FAF1CE"/>
<path d="M18.3668 5.99976H17.7329H17.099H16.4659V6.59999V7.19936V7.8013V8.39981V9.00004V9.60113V10.1996V10.7999V11.401V11.9995V12.5997H15.8328V13.1999V13.801H16.4659V14.4004H15.8328V13.801H15.1989V14.4004H14.5666V14.9998H13.9327V15.6017V16.2011H13.2996H12.6666V16.8004H12.0326V17.4015H11.3996H10.7656V18H11.3996H12.0326H12.6666H13.2996V17.4015H13.9327H14.5666V16.8004H15.1989V16.2011V15.6017H15.8328V16.2011H16.4659V15.6017V14.9998H17.099V14.4004H17.7329V13.801V13.1999H18.3668V12.5997V11.9995H18.999V11.401V10.7999V10.1996V9.60113V9.00004V8.39981V7.8013V7.19936V6.59999V5.99976H18.3668Z" fill="#F2A317"/>
<path d="M12.0326 17.386V17.4015H10.7656V18H13.2996V17.4015H14.5666V17.386H12.0326Z" fill="#1D1D1B"/>
<path d="M15.8331 4.20068H15.1992V4.80005H15.8331V4.20068Z" fill="white"/>
<path d="M15.1996 5.99971V4.20074H14.5665V3.60137H13.9334V3.00028H13.2995V2.40091H12.6664V1.80068H12.0333V1.19959H10.7663V0.599365H5.69914V1.19959H4.43298V1.80068H3.79906V2.40091H3.16513V3.00028H2.53205V3.60137H1.89897V4.80097H1.26504V6.00057H0.632812V12.0003H1.26589V13.1999H1.89982V14.4012H2.5329V15.0006H3.16598V15.6025H3.7999V16.2019H4.43383V16.8013H5.69999V17.4023H10.7672V16.8013H12.0342V16.2019H12.6672V15.6025H13.3003V15.0006H13.9343V14.4012H14.5673V13.801H15.2004V12.6005H15.8343V5.99971H15.2004H15.1996ZM3.16598 6.59908V5.39948H3.7999V4.80011H4.43383V4.20074H5.06691V3.60137H5.69999V3.00028H10.7672V3.60137H11.4002V4.20074H12.0333V4.80011H12.6664V5.39948H13.2995V6.59908H13.9334V11.4001H13.2995V12.5997H12.6664V13.199H12.0333V13.8001H11.4002V14.4003H10.7672V14.9997H5.69999V14.4003H5.06691V13.8001H4.43383V13.199H3.7999V12.5997H3.16598V11.4001H2.5329V6.59908H3.16598Z" fill="#FDCD00"/>
<path d="M4.43386 5.99966H3.80078V6.59988V7.19925V7.8012V8.39971V8.99994V9.60103V10.1995V10.7998H4.43386V11.4009V11.9994H5.06779V12.5996H5.70087V13.1998H6.33395H6.96702V13.8009H7.60095H8.23403H8.86711H9.50104H10.135V13.1998H10.7672H11.4011V12.5996H12.0342V11.9994H12.6681V11.4009V10.7998H13.3012V10.1995V9.60103V8.99994V8.39971V7.8012V7.19925H12.6681V6.59988V5.99966V5.40029H12.0342V4.80092H11.4011V4.20069H10.7672H10.135V3.60132H9.50104H8.86711H8.23403H7.60095H6.96702H6.33395V4.20069H5.70087H5.06779V4.80092H4.43386V5.40029V5.99966Z" fill="#FDCD00"/>
<path d="M17.7321 4.2007V3.60133V3.00024H17.0982V3.60133H16.4651H15.832V4.2007V4.80093V5.4003H16.4651V4.80093H17.0982H17.7321V5.4003V5.99967H18.366V5.4003V4.80093V4.2007H17.7321Z" fill="#F2A317"/>
<path d="M16.4659 2.40092V1.80069H15.8328H15.1989V1.1996H14.5666V0.599369H13.9327H13.2996V0H12.6666H12.0326H11.3996H10.7656V0.599369H11.3996H12.0326V1.1996H12.6666V1.80069H13.2996V2.40092H13.9327V3.00029H14.5666H15.1989H15.8328H16.4659H17.099V2.40092H16.4659Z" fill="#F2A317"/>
<path d="M17.7341 4.2007V3.60133V3.00024H17.1001V3.60133H16.4671H15.834V4.2007V4.80093V5.4003H16.4671V4.80093H17.1001H17.7341V5.4003V5.99967H18.368V5.4003V4.80093V4.2007H17.7341Z" fill="#F2A317"/>
<path d="M17.7335 4.2007V3.60133V3.00024H17.0996V3.60133V4.2007H17.7335V4.80093V5.39944V5.99967H18.3675V5.39944V4.80093V4.2007H17.7335Z" fill="#1D1D1B"/>
<path d="M15.1995 1.19971H14.5664V1.8008H15.1995V1.19971Z" fill="#1D1D1B"/>
<path d="M15.1992 2.40101H15.8331H16.4662V1.80078H15.8331H15.1992V2.40101Z" fill="#1D1D1B"/>
<path d="M13.9319 1.19959H14.5658V0.599365H13.9319H13.2988V1.19959H13.9319Z" fill="#1D1D1B"/>
<path d="M17.0999 2.40088H16.4668V3.00025H17.0999V2.40088Z" fill="#1D1D1B"/>
<path d="M11.3996 0.599369H12.0326H12.6666H13.2996V0H12.6666H12.0326H11.3996H10.7656V0.599369H11.3996Z" fill="#1D1D1B"/>
<path d="M15.8351 13.801H15.2012V14.4004H15.8351V13.801Z" fill="#1D1D1B"/>
<path d="M18.3683 5.99976H17.7344H18.3683V6.59999V7.19936V7.8013V8.39981V9.00004V9.60113V10.1996V10.7999V11.401V11.9995H19.0005V11.401V10.7999V10.1996V9.60113V9.00004V8.39981V7.8013V7.19936V6.59999V5.99976H18.3683Z" fill="#1D1D1B"/>
<path d="M15.834 14.9998V15.6017V16.2011H16.4671V15.6017V14.9998H15.834Z" fill="#1D1D1B"/>
<path d="M17.0999 14.4004H16.4668V14.9998H17.0999V14.4004Z" fill="#1D1D1B"/>
<path d="M17.7335 11.9995V12.5997V13.2008H17.0996V13.8011V14.4004H17.7335V13.8011V13.2008H18.3675V12.5997V11.9995H17.7335Z" fill="#1D1D1B"/>
<path d="M13.301 17.4016H12.668V18.0001H13.301V17.4016Z" fill="#1D1D1B"/>
<path d="M15.2006 16.2012V15.6018H14.5684V16.2012V16.8005H15.2006V16.2012Z" fill="#1D1D1B"/>
<path d="M14.5667 16.8005H13.9336V17.4016H14.5667V16.8005Z" fill="#1D1D1B"/>
<path d="M10.7675 16.8003V17.4014H10.1353H9.50134H8.86741H8.23434H7.60126H6.96733H6.33425H5.70117V17.9999H6.33425H6.96733H7.60126H8.23434H8.86741H9.50134H10.1353H10.7675V17.4014H11.4014H12.0345V16.8003H11.4014H10.7675Z" fill="#1D1D1B"/>
<path d="M12.6663 16.2009H12.0332V16.8003H12.6663V16.2009Z" fill="#1D1D1B"/>
<path d="M13.301 15.6017H12.668V16.2011H13.301H13.9341V15.6017V14.9998H13.301V15.6017Z" fill="#1D1D1B"/>
<path d="M14.5667 14.4004H13.9336V14.9998H14.5667V14.4004Z" fill="#1D1D1B"/>
<path d="M15.2014 13.801H14.5684V14.4013H15.2014V13.801Z" fill="#1D1D1B"/>
<path d="M15.1992 13.2007V13.8009H15.8331V13.2007V12.5996H15.1992V13.2007Z" fill="#1D1D1B"/>
<path d="M15.834 6.59985V7.19922V7.80117V8.39968V8.99991V9.601V10.1995V10.7997V11.4008V11.9993V12.5996H16.4671V11.9993V11.4008V10.7997V10.1995V9.601V8.99991V8.39968V7.80117V7.19922V6.59985H15.834Z" fill="#1D1D1B"/>
<path d="M15.1992 5.40039V5.99976H15.8331V5.40039V4.80103H15.1992V5.40039Z" fill="#1D1D1B"/>
<path d="M15.2014 3.60132H14.5684V4.20069H15.2014V3.60132Z" fill="#1D1D1B"/>
<path d="M12.0335 13.2007H11.4004V13.8009H12.0335V13.2007Z" fill="#1D1D1B"/>
<path d="M12.6671 6.59987V7.19924H13.3002V7.80119V8.3997V8.99993V9.60102V10.1995V10.7998H12.6671V11.4008V11.9994H12.0332V12.5996V13.2007H12.6671V12.5996H13.3002V11.9994V11.4008H13.9333V10.7998V10.1995V9.60102V8.99993V8.3997V7.80119V7.19924V6.59987H13.3002V5.99964V5.39941H12.6671V5.99964V6.59987Z" fill="#1D1D1B"/>
<path d="M12.6663 4.80103H12.0332V5.39953H12.6663V4.80103Z" fill="#1D1D1B"/>
<path d="M12.0335 4.20068H11.4004V4.80005H12.0335V4.20068Z" fill="#1D1D1B"/>
<path d="M14.5667 3.00024H13.9336V3.60133H14.5667V3.00024Z" fill="#1D1D1B"/>
<path d="M13.9347 2.40088H13.3008V3.00025H13.9347V2.40088Z" fill="#1D1D1B"/>
<path d="M13.301 1.80078H12.668V2.40101H13.301V1.80078Z" fill="#1D1D1B"/>
<path d="M12.6663 1.19971H12.0332V1.8008H12.6663V1.19971Z" fill="#1D1D1B"/>
<path d="M10.7656 1.19959H11.3996H12.0326V0.599365H11.3996H10.7656V1.19959Z" fill="#1D1D1B"/>
<path d="M5.06752 16.8003H4.43359V17.4014H5.06752H5.7006V16.8003H5.06752Z" fill="#1D1D1B"/>
<path d="M4.43471 16.2009H3.80078V16.8003H4.43471V16.2009Z" fill="#1D1D1B"/>
<path d="M3.16628 15.6017V14.9998H2.5332V15.6017V16.2011H3.16628H3.80021V15.6017H3.16628Z" fill="#1D1D1B"/>
<path d="M2.53347 14.4004H1.90039V14.9998H2.53347V14.4004Z" fill="#1D1D1B"/>
<path d="M6.33256 14.9998H6.96564H7.59957H8.23265H8.86573H9.49965H10.1336H10.7658V14.4004H11.3997V13.801H10.7658H10.1336V14.4004H9.49965H8.86573H8.23265H7.59957H6.96564H6.33256V13.801H5.69949H5.06641V14.4004H5.69949V14.9998H6.33256Z" fill="#1D1D1B"/>
<path d="M5.06667 13.2007H4.43359V13.8009H5.06667V13.2007Z" fill="#1D1D1B"/>
<path d="M1.89955 13.2007H1.26562V13.8009V14.4003H1.89955V13.8009V13.2007Z" fill="#1D1D1B"/>
<path d="M1.26589 11.9995H0.632812V12.5997V13.2008H1.26589V12.5997V11.9995Z" fill="#1D1D1B"/>
<path d="M0.633079 10.7997V10.1995V9.601V8.99991V8.39968V7.80117V7.19922V6.59985H0V7.19922V7.80117V8.39968V8.99991V9.601V10.1995V10.7997V11.4008H0.633079V10.7997Z" fill="#1D1D1B"/>
<path d="M4.43329 11.9995H3.80021V11.401V10.7999H3.16628V10.1996V9.60114V9.00005V8.39982V7.80131V7.19936H3.80021V6.59999V5.99976H4.43329V5.39953V4.80103H3.80021V5.39953H3.16628V5.99976V6.59999H2.5332V7.19936V7.80131V8.39982V9.00005V9.60114V10.1996V10.7999V11.401H3.16628V11.9995V12.5997H3.80021V13.2008H4.43329V12.5997V11.9995Z" fill="#1D1D1B"/>
<path d="M1.26589 5.39953V4.80103H0.632812V5.39953V5.99976H1.26589V5.39953Z" fill="#1D1D1B"/>
<path d="M5.06667 4.20068H4.43359V4.80005H5.06667V4.20068Z" fill="#1D1D1B"/>
<path d="M1.89955 4.20069V3.60132H1.26562V4.20069V4.80092H1.89955V4.20069Z" fill="#1D1D1B"/>
<path d="M6.33256 4.2007V3.60133H6.96564H7.59957H8.23265H8.86573H9.49965H10.1336V4.2007H10.7658H11.3997V3.60133H10.7658V3.00024H10.1336H9.49965H8.86573H8.23265H7.59957H6.96564H6.33256H5.69949V3.60133H5.06641V4.2007H5.69949H6.33256Z" fill="#1D1D1B"/>
<path d="M2.53347 3.00024H1.90039V3.60133H2.53347V3.00024Z" fill="#1D1D1B"/>
<path d="M3.16628 2.40088H2.5332V3.00025H3.16628V2.40088Z" fill="#1D1D1B"/>
<path d="M3.79994 1.80078H3.16602V2.40101H3.79994V1.80078Z" fill="#1D1D1B"/>
<path d="M4.43471 1.19971H3.80078V1.8008H4.43471V1.19971Z" fill="#1D1D1B"/>
<path d="M5.7006 1.19959V0.599365H5.06752H4.43359V1.19959H5.06752H5.7006Z" fill="#1D1D1B"/>
<path d="M6.96733 0.599369H7.60126H8.23434H8.86741H9.50134H10.1353H10.7675V0H10.1353H9.50134H8.86741H8.23434H7.60126H6.96733H6.33425H5.70117V0.599369H6.33425H6.96733Z" fill="#1D1D1B"/>
<path d="M17.1001 4.80103H16.4671V5.40039H15.834V5.99976V6.59999H16.4671V5.99976H17.1001H17.7341V5.40039V4.80103H17.1001Z" fill="white"/>
<path d="M16.4656 3.00024H15.8326H15.1986H14.5664V3.60133H15.1986V4.2007H15.8326V3.60133H16.4656H17.0987V3.00024H16.4656Z" fill="white"/>
<path d="M8.86684 13.8008H8.23376H7.60068H6.96676V13.1997H6.33368H5.7006V12.5995H5.06752V11.9993H4.43359V12.5995V13.1997H5.06752V13.8008H5.7006H6.33368V14.4002H6.96676H7.60068H8.23376H8.86684H9.50077H10.1347V13.8008H9.50077H8.86684Z" fill="white"/>
<path d="M10.1348 13.2V13.801H10.767H11.4009V13.2H10.767H10.1348Z" fill="white"/>
<path d="M12.0335 12.5996H11.4004V13.199H12.0335V12.5996Z" fill="white"/>
<path d="M4.43386 10.7998H3.80078V11.4009V11.9994H4.43386V11.4009V10.7998Z" fill="white"/>
<path d="M3.79994 9.60098V8.99989V8.39966H3.16602V8.99989V9.60098V10.1995V10.7997H3.79994V10.1995V9.60098Z" fill="white"/>
<path d="M3.79994 7.19922H3.16602V7.80031H3.79994V7.19922Z" fill="white"/>
</g>
<defs>
<clipPath id="clip0_13_12752">
<rect width="19" height="18" fill="white"/>
</clipPath>
</defs>
</svg>
