<svg width="15" height="15" viewBox="0 0 171 171" fill="none" xmlns="http://www.w3.org/2000/svg">
<g clip-path="url(#clip0_14_16762)">
<g clip-path="url(#clip1_14_16762)">
<path d="M54.2999 20.0925C28.9576 45.4349 27.5946 85.8073 50.1986 112.774C51.8632 114.76 51.7229 117.691 49.8907 119.524C48.3948 121.02 46.1137 121.432 44.2073 120.516C38.5282 117.786 33.2075 114.071 28.5057 109.37C6.09532 86.9592 6.06826 50.5118 28.4245 28.0674C30.5239 25.9596 30.7053 22.53 28.7181 20.3166C26.5619 17.9153 22.864 17.8405 20.6119 20.0925C-6.17794 46.8824 -6.17794 90.4734 20.6119 117.263C45.9864 142.638 86.4316 143.976 113.398 121.283C115.35 119.641 118.238 119.78 120.041 121.583L120.128 121.67C121.599 123.141 122.004 125.384 121.104 127.261C118.372 132.96 114.649 138.298 109.933 143.014C87.5227 165.425 51.0753 165.452 28.6309 143.096C26.5231 140.996 23.0935 140.815 20.8801 142.802C18.4788 144.958 18.404 148.656 20.656 150.908C47.4459 177.698 91.0366 177.698 117.827 150.908C143.201 125.534 144.54 85.0886 121.846 58.1217C120.204 56.1702 120.343 53.2822 122.147 51.4787C123.618 50.0072 125.862 49.6027 127.738 50.5028C133.436 53.2355 138.774 56.9591 143.49 61.6749C165.9 84.0853 165.927 120.533 143.571 142.977C141.472 145.085 141.29 148.514 143.277 150.728C145.434 153.129 149.131 153.204 151.384 150.952C178.173 124.162 178.173 80.5711 151.384 53.7812C126.037 28.4348 85.6557 27.0748 58.6888 49.6899C56.737 51.3268 53.8537 51.1852 52.0526 49.384L51.9988 49.3302C50.5273 47.8587 50.1228 45.6156 51.0226 43.7393C53.7549 38.0409 57.4781 32.7025 62.1943 27.9863C84.6047 5.57591 121.052 5.54886 143.496 27.9051C145.604 30.0045 149.034 30.1859 151.247 28.1987C153.649 26.0425 153.723 22.3446 151.471 20.0925C124.68 -6.69735 81.0902 -6.69768 54.2999 20.0925Z" fill="#636978"/>
<path d="M62.8909 94.6439C67.5994 94.6439 71.4165 91.6043 71.4165 87.8547C71.4165 84.1051 67.5994 81.0654 62.8909 81.0654C58.1823 81.0654 54.3652 84.1051 54.3652 87.8547C54.3652 91.6043 58.1823 94.6439 62.8909 94.6439Z" fill="#F2F6FC"/>
<path d="M109.11 94.6439C113.818 94.6439 117.635 91.6043 117.635 87.8547C117.635 84.1051 113.818 81.0654 109.11 81.0654C104.401 81.0654 100.584 84.1051 100.584 87.8547C100.584 91.6043 104.401 94.6439 109.11 94.6439Z" fill="#F2F6FC"/>
<path d="M86.0177 87.7034C88.517 87.7034 90.5432 85.436 90.5432 82.6392C90.5432 79.8423 88.517 77.575 86.0177 77.575C83.5183 77.575 81.4922 79.8423 81.4922 82.6392C81.4922 85.436 83.5183 87.7034 86.0177 87.7034Z" fill="#555A66"/>
<path d="M64.3291 82.1664C62.9454 82.1664 61.8242 81.0452 61.8242 79.6615V76.3547C61.8242 74.971 62.9454 73.8499 64.3291 73.8499C65.7128 73.8499 66.834 74.971 66.834 76.3547V79.6615C66.834 81.0452 65.7128 82.1664 64.3291 82.1664Z" fill="#555A66"/>
<path d="M107.69 82.1664C106.307 82.1664 105.186 81.0452 105.186 79.6615V76.3547C105.186 74.971 106.307 73.8499 107.69 73.8499C109.074 73.8499 110.195 74.971 110.195 76.3547V79.6615C110.195 81.0452 109.074 82.1664 107.69 82.1664Z" fill="#555A66"/>
<path d="M39.0357 16.8754C42.8362 16.8754 45.9171 13.7945 45.9171 9.99396C45.9171 6.19346 42.8362 3.11255 39.0357 3.11255C35.2352 3.11255 32.1543 6.19346 32.1543 9.99396C32.1543 13.7945 35.2352 16.8754 39.0357 16.8754Z" fill="#87C7FF"/>
<path d="M161.571 45.4008C165.371 45.4008 168.452 42.3199 168.452 38.5194C168.452 34.7189 165.371 31.6379 161.571 31.6379C157.77 31.6379 154.689 34.7189 154.689 38.5194C154.689 42.3199 157.77 45.4008 161.571 45.4008Z" fill="#FF8870"/>
<path d="M132.96 167.931C136.76 167.931 139.841 164.85 139.841 161.05C139.841 157.249 136.76 154.168 132.96 154.168C129.159 154.168 126.078 157.249 126.078 161.05C126.078 164.85 129.159 167.931 132.96 167.931Z" fill="#CDC3B4"/>
<path d="M10.5533 139.362C14.3538 139.362 17.4347 136.281 17.4347 132.481C17.4347 128.68 14.3538 125.599 10.5533 125.599C6.75279 125.599 3.67188 128.68 3.67188 132.481C3.67188 136.281 6.75279 139.362 10.5533 139.362Z" fill="#06CCAB"/>
<path d="M121.847 58.1213C149.093 96.2293 112.128 120.59 78.0846 114.746C44.0415 108.902 39.7786 63.7313 51.0225 43.7393C53.7548 38.0409 57.4777 32.7025 62.1939 27.9863C84.6043 5.57591 121.052 5.54886 143.496 27.9051C145.604 30.0045 149.033 30.1859 151.247 28.1987C153.649 26.0425 153.723 22.3446 151.471 20.0925C124.681 -6.69735 81.0904 -6.69768 54.3002 20.0925C28.9578 45.4349 27.5948 85.8073 50.1989 112.774C51.8635 114.76 51.7232 117.691 49.8909 119.524C48.395 121.02 46.1139 121.432 44.2075 120.516C38.5285 117.786 33.2078 114.071 28.5059 109.37C6.09557 86.9592 6.06851 50.5118 28.4248 28.0674C30.5242 25.9596 30.7055 22.53 28.7183 20.3166C26.5621 17.9153 22.8643 17.8405 20.6122 20.0925C-6.17802 46.8824 -6.17802 90.4734 20.6122 117.263C45.9867 142.638 86.4318 143.976 113.399 121.283C115.35 119.641 118.238 119.78 120.042 121.583L120.128 121.67C121.599 123.141 122.004 125.384 121.104 127.261C118.372 132.96 114.65 138.298 109.933 143.014C87.523 165.425 51.0756 165.452 28.6312 143.096C26.5237 140.996 23.094 140.815 20.8804 142.802C18.479 144.958 18.4042 148.656 20.6563 150.908C47.4465 177.698 91.0368 177.698 117.827 150.908C143.202 125.533 144.54 85.0882 121.847 58.1213Z" fill="#555A66"/>
</g>
</g>
<defs>
<clipPath id="clip0_14_16762">
<rect width="171" height="171" fill="white"/>
</clipPath>
<clipPath id="clip1_14_16762">
<rect width="171" height="171" fill="white" transform="translate(0.5)"/>
</clipPath>
</defs>
</svg>
