<svg width="360" height="189" viewBox="0 0 360 189" fill="none" xmlns="http://www.w3.org/2000/svg">
<path d="M361.54 20.53C356.38 20.17 351.21 19.18 346.08 19.87C327.52 22.35 317.63 44.72 299.7 50.15C285.59 54.43 270.54 47.09 255.83 48.15C234.41 49.7 218.78 67.97 201.87 81.2C188.47 91.69 173.01 99.53 156.64 104.16C147.31 106.8 137.44 108.4 127.91 106.56C116.12 104.28 104.2 96.86 92.97 101.1C81.95 105.26 76.07 119.5 64.38 120.94C59.95 121.49 55.5 119.99 51.04 120.09C42.2 120.29 34.66 126.68 29.49 133.84C24.31 141 20.68 149.24 14.99 156.01C2.72003 170.59 -19.08 176.26 -36.9 169.51C-40.03 168.32 -43.1 166.78 -46.44 166.48C-62.92 165.02 -73.07 193.09 -88.73 187.74C-96.35 185.13 -99.06 175.95 -100.68 168.06C-104.72 148.44 -108.75 128.82 -112.79 109.2C-116.78 89.83 -119.73 66.77 -105.64 52.9C-98.88 46.25 -89.45 43.23 -80.37 40.53C9.76003 13.67 102.69 -3.99 196.49 -10.81C266.31 -15.89 336.4 -14.97 406.4 -14.05C412.31 -13.97 420.81 -13.21 418.63 -6.38C416.79 -0.610001 407.58 5.72 402.84 8.98C390.85 17.22 376.1 21.57 361.54 20.54V20.53Z" fill="url(#paint0_linear_149_2015)"/>
<defs>
<linearGradient id="paint0_linear_149_2015" x1="193.695" y1="183.957" x2="133.407" y2="2.97033" gradientUnits="userSpaceOnUse">
<stop stop-color="#4630BA"/>
<stop offset="1" stop-color="#1A0B4E"/>
</linearGradient>
</defs>
</svg>
