<svg width="226" height="192" viewBox="0 0 226 192" fill="none" xmlns="http://www.w3.org/2000/svg">
<path d="M83.1133 148.791L137.681 120.268L140.289 125.258L88.3669 152.397L83.1133 148.791Z" fill="#8FA3AD"/>
<path d="M122.649 157.784C113.417 162.609 102.285 161.962 93.7603 156.1L88.3691 152.395L123.945 133.8L143.195 147.045L122.638 157.79L122.649 157.784Z" fill="#AFBDC4"/>
<path d="M123.943 133.801L140.29 125.257L149.858 143.563L143.194 147.046L123.943 133.801Z" fill="#8FA3AD"/>
<path d="M121.102 128.935L158.512 109.381L162.468 116.948L129.065 134.408L121.102 128.935Z" fill="#AFBDC4"/>
<path d="M165.111 150.911C160.912 153.106 155.843 152.814 151.97 150.149L129.064 134.409L162.478 116.943L171.405 134.021C174.491 139.926 172.159 147.228 166.214 150.335L165.122 150.906L165.111 150.911Z" fill="#CED7DB"/>
<path d="M162.102 145.25C158.567 147.097 154.208 145.752 152.376 142.247C150.544 138.742 151.927 134.395 155.462 132.547C158.998 130.699 163.356 132.045 165.188 135.55C167.02 139.055 165.637 143.402 162.102 145.25Z" stroke="white" stroke-width="7.05715" stroke-miterlimit="10"/>
<path d="M152.397 142.236L146.34 145.402" stroke="white" stroke-width="7.05715" stroke-miterlimit="10"/>
<path d="M165.191 135.549L170.697 132.671" stroke="white" stroke-width="7.05715" stroke-miterlimit="10"/>
<path d="M127.909 143.378C128.718 144.925 128.108 146.841 126.548 147.656C124.987 148.472 123.066 147.879 122.257 146.332C121.449 144.784 122.058 142.869 123.619 142.053C125.179 141.237 127.1 141.83 127.909 143.378Z" stroke="white" stroke-width="7.05715" stroke-miterlimit="10"/>
<path d="M112.563 153.601C113.532 153.095 113.906 151.919 113.404 150.959C112.902 149.999 111.723 149.635 110.755 150.141C109.787 150.647 109.412 151.823 109.914 152.783C110.416 153.743 111.595 154.107 112.563 153.601Z" stroke="white" stroke-width="4.34286" stroke-miterlimit="10"/>
<path d="M113.398 150.962L122.247 146.336" stroke="white" stroke-width="4.34286" stroke-miterlimit="10"/>
<path d="M156.066 150.987L142.572 158.04L141.842 156.644L148.986 152.91L148.015 151.053L145.507 152.364L144.856 151.119L150.794 148.015L156.066 150.987Z" fill="#CED7DB"/>
<path d="M94.2392 156.582L74.627 166.833L75.7153 168.915L93.0346 159.862L95.2013 160.429L85.2728 165.618L85.8381 166.7L102.467 158.008L94.2392 156.582Z" fill="#AFBDC4"/>
<path d="M131.271 42.6587L185.684 71.4766L188.319 66.5014L136.545 39.0807L131.271 42.6587Z" fill="#8FA3AD"/>
<path d="M170.855 33.8799C161.65 29.0046 150.515 29.5918 141.958 35.4071L136.547 39.083L172.021 57.8708L191.343 44.7305L170.844 33.874L170.855 33.8799Z" fill="#AFBDC4"/>
<path d="M172.02 57.8694L188.32 66.5023L197.987 48.2488L191.341 44.729L172.02 57.8694Z" fill="#8FA3AD"/>
<path d="M169.15 62.72L206.454 82.4769L210.451 74.9307L177.143 57.2903L169.15 62.72Z" fill="#AFBDC4"/>
<path d="M213.276 40.9823C209.089 38.7646 204.018 39.0293 200.131 41.6737L177.141 57.2893L210.459 74.9356L219.478 57.9064C222.597 52.0186 220.304 44.7042 214.376 41.565L213.287 40.9882L213.276 40.9823Z" fill="#CED7DB"/>
<path d="M210.24 46.6277C206.715 44.7608 202.35 46.0829 200.499 49.5778C198.648 53.0727 200.007 57.427 203.532 59.2939C207.057 61.1608 211.423 59.8387 213.274 56.3438C215.125 52.8489 213.765 48.4946 210.24 46.6277Z" stroke="white" stroke-width="7.05715" stroke-miterlimit="10"/>
<path d="M200.522 49.5891L194.482 46.3904" stroke="white" stroke-width="7.05715" stroke-miterlimit="10"/>
<path d="M213.277 56.3455L218.767 59.2528" stroke="white" stroke-width="7.05715" stroke-miterlimit="10"/>
<path d="M176.039 48.3113C176.856 46.7684 176.257 44.8495 174.701 44.0253C173.145 43.2011 171.221 43.7838 170.403 45.3267C169.586 46.8696 170.185 48.7885 171.742 49.6127C173.298 50.4369 175.222 49.8542 176.039 48.3113Z" stroke="white" stroke-width="7.05715" stroke-miterlimit="10"/>
<path d="M160.751 38.0044C161.716 38.5157 162.084 39.6939 161.577 40.6511C161.07 41.6083 159.889 41.9661 158.924 41.4548C157.958 40.9434 157.59 39.7652 158.097 38.808C158.604 37.8508 159.786 37.4931 160.751 38.0044Z" stroke="white" stroke-width="4.34286" stroke-miterlimit="10"/>
<path d="M161.57 40.6487L170.394 45.3219" stroke="white" stroke-width="4.34286" stroke-miterlimit="10"/>
<path d="M204.238 40.8551L190.782 33.7286L190.045 35.1202L197.168 38.8931L196.187 40.7453L193.686 39.4206L193.029 40.662L198.949 43.7977L204.238 40.8551Z" fill="#CED7DB"/>
<path d="M142.441 34.928L122.885 24.5706L123.984 22.4942L141.254 31.6407L143.424 31.0862L133.524 25.8428L134.095 24.7644L150.677 33.5464L142.441 34.928Z" fill="#AFBDC4"/>
<path d="M51.3941 45.3648L45.959 67.8088L170.323 97.9251L178.769 63.0476L76.8342 38.3628C74.297 37.7484 71.64 37.9017 69.1975 38.8055L51.4045 45.3673L51.3941 45.3648Z" fill="#CED7DB"/>
<path d="M40.5265 90.2426L53.3463 104.218C55.1047 106.139 57.3973 107.491 59.9345 108.105L161.88 132.792L170.326 97.9147L45.9616 67.7985L40.529 90.2323L40.5265 90.2426Z" fill="#EBEEF0"/>
<path d="M120.832 86.0061C123.708 74.1287 116.329 62.1485 104.349 59.2475C92.3694 56.3465 80.3263 63.6233 77.4501 75.5007C74.5738 87.3781 81.9536 99.3583 93.9332 102.259C105.913 105.16 117.956 97.8835 120.832 86.0061Z" fill="#455A64"/>
<path d="M103.315 63.4618C98.7288 62.3514 94.1426 63.1071 90.3394 65.2203C90.6826 65.3034 91.0332 65.3555 91.3763 65.4386C102.482 68.1279 111.39 75.1638 116.715 84.2678C118.585 74.9526 112.704 65.7357 103.315 63.4618Z" fill="#42A4F5"/>
<path d="M91.3816 65.4511C91.0385 65.368 90.6904 65.3055 90.3447 65.2327C87.153 67.0028 84.5124 69.725 82.9053 73.1339C83.3911 73.2188 83.8769 73.3037 84.3656 73.4221C94.9824 75.993 101.525 86.6144 98.976 97.1405C98.8587 97.6251 98.723 98.0943 98.5666 98.5585C106.893 98.8611 114.559 93.3397 116.579 84.9992C116.636 84.7621 116.691 84.5353 116.725 84.3034C111.401 75.1994 102.503 68.1661 91.3871 65.4742L91.3816 65.4511Z" fill="#64B4F5"/>
<path d="M88.5098 65.8103L92.6827 69.5179C91.9109 70.2904 90.8303 71.8352 92.6827 71.8352C94.9981 71.8352 99.1692 72.2987 99.1692 72.7621C99.1692 73.1329 97.9334 76.3153 97.3154 77.8601C98.2423 79.096 100.189 81.6605 100.56 82.0312C101.023 82.4947 103.804 82.4947 102.877 82.9581C102.135 83.3289 97.9334 86.5113 95.925 88.0561C95.925 88.3651 95.8324 88.8904 95.4616 88.5196C95.0908 88.1488 91.2905 88.3651 89.4367 88.5196L89.4367 94.0811" stroke="#455A64" stroke-width="2" stroke-linecap="round" stroke-linejoin="round"/>
<path d="M84.3666 73.4106C83.8778 73.2922 83.3945 73.197 82.9062 73.1224C82.4028 74.2011 81.9959 75.3359 81.7063 76.5318C79.3945 86.0785 85.3287 95.7121 94.9576 98.0439C96.1638 98.336 97.3792 98.4993 98.5675 98.547C98.7136 98.0803 98.8596 97.6136 98.9769 97.129C101.526 86.6029 94.9833 75.9815 84.3666 73.4106Z" fill="#8FC9F7"/>
<path d="M78.8574 112.688L81.3191 102.522L122.309 112.448L133.726 65.3025L153.254 70.0315L156.265 57.598" stroke="white" stroke-width="7.05715" stroke-miterlimit="10"/>
<path d="M94.6921 105.76L93.5012 110.678L135.251 120.788L133.98 126.036" stroke="white" stroke-width="7.05715" stroke-miterlimit="10"/>
<path d="M126.615 94.6749L155.668 101.71L148.903 129.65" stroke="white" stroke-width="7.05715" stroke-miterlimit="10"/>
<path d="M132.753 69.3225L123.914 67.1822L126.371 57.0375L84.3824 46.8695L85.9103 40.56" stroke="white" stroke-width="7.05715" stroke-miterlimit="10"/>
<path d="M61.8848 108.577L73.047 62.4828L80.1803 64.2102L84.3796 46.8694" stroke="white" stroke-width="7.05715" stroke-miterlimit="10"/>
<path d="M164.653 64.5845C165.745 64.8489 166.416 65.9392 166.154 67.0217C165.892 68.1042 164.796 68.7665 163.704 68.5021C162.612 68.2377 161.941 67.1474 162.203 66.0648C162.465 64.9823 163.561 64.3201 164.653 64.5845Z" stroke="white" stroke-width="7.05715" stroke-miterlimit="10"/>
<path d="M79.1367 45.9497C79.3986 44.8679 78.7265 43.7767 77.6353 43.5124C76.5442 43.2482 75.4473 43.911 75.1853 44.9928C74.9233 46.0747 75.5955 47.1659 76.6866 47.4301C77.7778 47.6943 78.8747 47.0315 79.1367 45.9497Z" stroke="white" stroke-width="7.05715" stroke-miterlimit="10"/>
<path d="M119.256 104.233C120.348 104.498 121.02 105.588 120.758 106.67C120.496 107.753 119.4 108.415 118.308 108.151C117.216 107.886 116.544 106.796 116.806 105.714C117.069 104.631 118.165 103.969 119.256 104.233Z" stroke="white" stroke-width="7.05715" stroke-miterlimit="10"/>
<path d="M146.305 121.565C147.397 121.829 148.069 122.92 147.807 124.002C147.544 125.085 146.448 125.747 145.357 125.483C144.265 125.218 143.593 124.128 143.855 123.045C144.117 121.963 145.213 121.301 146.305 121.565Z" stroke="white" stroke-width="7.05715" stroke-miterlimit="10"/>
<path d="M49.6509 111.579L26.3181 101.866C25.125 101.373 23.8142 101.268 22.554 101.564C19.2734 102.336 15.9982 100.328 15.233 97.0753L14.9852 96.022L44.3647 89.1098L49.6509 111.579Z" fill="#607D8A"/>
<path d="M39.0775 66.6303L22.5226 85.7269C21.6745 86.7002 20.5483 87.3792 19.2881 87.6757C16.0076 88.4476 13.9713 91.7054 14.7366 94.958L14.9844 96.0112L44.3638 89.099L39.0775 66.6303Z" fill="#546E7A"/>
<path d="M110.764 75.0795L115.398 66.7373L120.496 78.3237L116.325 81.5679L114.008 87.1293L109.373 86.2024L108.447 90.837L97.7871 94.0812" stroke="#455A64" stroke-width="2" stroke-linecap="round" stroke-linejoin="round"/>
</svg>
