<svg width="272" height="276" viewBox="0 0 272 276" fill="none" xmlns="http://www.w3.org/2000/svg">
<path d="M4.11974 212.154C4.11974 212.154 10.9977 193.579 30.5338 197.053C30.5338 197.053 33.7916 183.72 52.0283 188.008C70.2646 192.297 66.5725 205.332 66.5725 205.332C66.5725 205.332 78.0545 188.949 102.159 192.953C126.262 196.956 128.577 226.123 128.577 226.123C128.577 226.123 133.257 217.821 147.235 226.506C161.212 235.192 156.28 248.138 156.28 248.138C156.28 248.138 182.097 250.131 173.64 269.383L4.11974 212.154Z" fill="#ADB4DA"/>
<path d="M164.642 91.4176C164.642 91.4176 85.6945 124.386 50.4326 218.268L127.886 243.937C127.886 243.937 114.41 167.829 181.214 117.163C181.214 117.163 177.326 93.8156 164.64 91.4173L164.642 91.4176Z" fill="#ADB4DA"/>
<path d="M65.2535 203.404C65.3368 199.266 54.2889 147.193 49.3417 93.3941C47.5239 73.6295 58.0001 207.833 58.0001 207.833L65.2521 203.404L65.2535 203.404Z" fill="#ADB4DA"/>
<path d="M66.0386 196.496C67.0617 193.745 71.8553 156.278 81.1323 119.091C84.5413 105.428 60.1509 197.755 60.1509 197.755L66.0386 196.496Z" fill="#ADB4DA"/>
<path d="M130.913 241.021C133.818 241.378 171.257 237.306 209.461 237.673C223.496 237.808 128.335 235.571 128.335 235.571L130.913 241.021Z" fill="#ADB4DA"/>
<path d="M115.172 213.779C118.562 211.414 167.929 191.744 215.345 166.03C232.765 156.583 115.517 222.283 115.517 222.283L115.172 213.779Z" fill="#ADB4DA"/>
<path d="M164.641 91.4179C164.641 91.4179 92.9013 143.121 85.7615 186.718C85.7615 186.718 114.5 145.827 133.628 137.255L119.488 173.791C119.488 173.791 167.942 116.845 179.287 110.929C190.632 105.012 164.641 91.4179 164.641 91.4179Z" fill="#D0DBE4"/>
<path d="M4.12159 212.154C4.12159 212.154 13.3918 193.16 37.8316 203.441C62.27 213.722 64.3454 220.402 64.3454 220.402C64.3454 220.402 64.7986 206.08 53.2969 199.416L61.2515 198.008C61.2515 198.008 17.5641 179.3 4.12159 212.154Z" fill="#D0DBE4"/>
<path d="M117.131 235.162C117.131 235.162 129.16 219.321 147.233 226.504C147.233 226.504 135.195 213.08 113.271 219.294C91.3478 225.508 85.9749 239.503 85.9749 239.503L144.818 259.004L156.277 248.136C156.277 248.136 139.893 228.04 117.129 235.162L117.131 235.162Z" fill="#D0DBE4"/>
<path d="M172.091 200.654C171.65 201.284 171.552 201.841 171.42 202.58C171.255 203.511 171.847 204.514 172.506 205.092C173.281 205.773 174.198 205.986 175.212 205.821C175.932 205.705 176.405 205.352 176.987 204.949C177.697 204.458 178.019 203.466 178.098 202.646C178.194 201.636 177.699 200.668 176.964 200.023C175.474 198.716 173.228 199.033 172.09 200.656L172.091 200.654Z" fill="#ADB4DA"/>
<path d="M186.642 190.974C186.795 191.342 186.909 191.61 187.326 191.713C187.632 191.789 187.901 191.657 188.024 191.361C188.188 190.967 188.046 190.713 187.841 190.369C187.398 189.623 186.312 190.171 186.643 190.973L186.642 190.974Z" fill="#ADB4DA"/>
<path d="M68.1223 132.768C68.2136 132.845 68.3067 132.92 68.3981 132.996C68.7483 133.284 69.3481 133.282 69.7337 133.077C69.943 132.966 70.1301 132.843 70.2431 132.626C70.5313 132.07 70.5362 131.504 70.1365 131.004C70.061 130.91 69.9854 130.815 69.9085 130.72C69.3932 130.076 68.3759 130.144 67.8619 130.733C67.2865 131.394 67.4899 132.248 68.1223 132.768Z" fill="#ADB4DA"/>
<path d="M43.7215 115.6C43.6145 115.849 43.4859 116.097 43.4282 116.362C43.3554 116.701 43.5951 117.058 43.9754 116.975C44.2974 116.904 44.5958 116.749 44.8962 116.618C45.4495 116.377 45.4892 115.602 45.0691 115.234C44.5961 114.819 43.9525 115.058 43.7215 115.6Z" fill="#ADB4DA"/>
<path d="M113.717 110.86C113.585 111.428 113.655 111.805 113.849 112.342C114.029 112.841 114.834 113.106 115.272 112.814C115.759 112.491 116.019 112.258 116.262 111.703C116.956 110.112 114.11 109.165 113.717 110.86Z" fill="#ADB4DA"/>
<path d="M22.968 182.248C22.8717 182.095 22.7819 181.94 22.6498 181.816C22.3387 181.524 21.9026 181.285 21.4563 181.421C21.1608 181.51 20.9327 181.614 20.6897 181.809C19.9918 182.369 20.3183 183.446 21.0792 183.732C21.2171 183.784 21.3391 183.834 21.4858 183.86C21.5921 183.895 21.7009 183.901 21.8113 183.878C21.9921 183.863 22.0263 183.86 21.9125 183.871C22.6864 183.909 23.4345 182.98 22.968 182.248Z" fill="#ADB4DA"/>
<path d="M15.1097 193.144C15.8477 193.388 16.2307 192.237 15.4899 191.992C14.7518 191.748 14.3689 192.899 15.1097 193.144Z" fill="#ADB4DA"/>
<path d="M161.52 229.485C161.282 229.533 161.045 229.579 160.811 229.643C159.913 229.884 159.911 231.398 160.946 231.366C161.265 231.356 161.583 231.322 161.902 231.291C163.054 231.186 162.71 229.242 161.521 229.487L161.52 229.485Z" fill="#ADB4DA"/>
<path d="M173.342 244.224C173.335 244.19 173.327 244.156 173.32 244.121C173.303 244.434 173.284 244.748 173.267 245.06C173.376 244.533 173.455 244.079 173.202 243.574C172.9 243.142 172.868 243.083 173.102 243.397C173.019 243.217 172.902 243.069 172.745 242.955C172.23 242.503 171.606 242.499 171.001 242.787C171.268 242.73 171.532 242.675 171.798 242.618C171.236 242.584 170.801 242.804 170.377 243.144C170.647 243.008 170.92 242.87 171.191 242.734C171.15 242.737 171.111 242.741 171.071 242.744C170.322 242.81 169.731 243.594 169.603 244.273C169.468 244.988 169.755 245.828 170.403 246.22C171.796 247.063 173.712 245.922 173.342 244.221L173.342 244.224Z" fill="#ADB4DA"/>
<path d="M153.635 154.552C154.617 154.877 155.844 154.322 156.136 153.29C156.427 152.254 155.934 151.132 154.881 150.782C153.899 150.457 152.672 151.012 152.379 152.045C152.088 153.081 152.582 154.202 153.635 154.552Z" fill="#ADB4DA"/>
<path d="M40.073 162.497C40.0762 162.6 40.0794 162.704 40.0827 162.807C40.1817 166.063 45.0739 163.594 42.531 161.573C42.4503 161.508 42.3693 161.444 42.2872 161.379C41.466 160.726 40.0413 161.444 40.073 162.497Z" fill="#D0DBE4"/>
<path d="M63.5168 175.848C63.508 175.914 63.5009 175.978 63.4921 176.044C63.3308 177.363 65.3273 178.027 65.9856 176.87C66.0175 176.812 66.0508 176.755 66.0824 176.699C66.5291 175.912 66.2625 174.883 65.358 174.584C64.459 174.286 63.6264 174.951 63.5168 175.848Z" fill="#D0DBE4"/>
<path d="M134.927 196.05C136.346 196.519 137.078 194.309 135.658 193.838C134.24 193.368 133.507 195.578 134.927 196.05Z" fill="#D0DBE4"/>
<path d="M151.678 185.326C150.282 185.256 149.026 185.899 148.747 187.379C148.468 188.86 149.556 190.292 151.077 190.368C152.479 190.439 153.597 189.332 153.729 187.965C153.835 186.867 152.855 185.383 151.678 185.326Z" fill="#D0DBE4"/>
<g clip-path="url(#clip0_2002_2851)">
<path d="M212.949 96.3345L179.112 129.671L182.185 132.79L214.382 101.07L212.949 96.3345Z" fill="#8FA3AD"/>
<path d="M210.332 127.612C216.057 121.972 218.186 113.618 215.854 105.932L214.381 101.071L192.321 122.805L197.592 140.164L210.339 127.605L210.332 127.612Z" fill="#AFBDC4"/>
<path d="M192.32 122.804L182.184 132.791L193.459 144.235L197.592 140.164L192.32 122.804Z" fill="#8FA3AD"/>
<path d="M189.391 119.544L166.193 142.399L170.854 147.131L191.567 126.724L189.391 119.544Z" fill="#AFBDC4"/>
<path d="M195.308 157.238C197.912 154.672 198.883 150.869 197.822 147.376L191.564 126.726L170.845 147.139L181.363 157.816C185 161.507 190.938 161.543 194.624 157.912L195.301 157.245L195.308 157.238Z" fill="#CED7DB"/>
<path d="M191.838 153.656C194.03 151.497 194.057 147.963 191.898 145.772C189.739 143.581 186.206 143.555 184.014 145.715C181.822 147.875 181.795 151.408 183.954 153.599C186.112 155.79 189.646 155.816 191.838 153.656Z" stroke="white" stroke-width="0.748222" stroke-miterlimit="10"/>
<path d="M191.889 145.783L195.645 142.083" stroke="white" stroke-width="0.748222" stroke-miterlimit="10"/>
<path d="M183.955 153.6L180.541 156.964" stroke="white" stroke-width="0.748222" stroke-miterlimit="10"/>
<path d="M198.469 128.024C199.422 128.991 200.979 129.002 201.947 128.049C202.915 127.096 202.927 125.538 201.974 124.571C201.021 123.604 199.464 123.592 198.496 124.546C197.528 125.499 197.516 127.056 198.469 128.024Z" stroke="white" stroke-width="0.748222" stroke-miterlimit="10"/>
<path d="M209.608 119.182C209.007 119.773 208.051 119.767 207.46 119.166C206.869 118.566 206.876 117.61 207.477 117.019C208.077 116.427 209.033 116.434 209.624 117.034C210.215 117.634 210.208 118.59 209.608 119.182Z" stroke="white" stroke-width="0.460444" stroke-miterlimit="10"/>
<path d="M207.461 119.165L201.974 124.571" stroke="white" stroke-width="0.460444" stroke-miterlimit="10"/>
<path d="M197.491 150.593L205.858 142.349L204.999 141.476L200.569 145.841L199.425 144.68L200.98 143.147L200.213 142.369L196.532 145.996L197.491 150.593Z" fill="#CED7DB"/>
<path d="M216.098 106.398L228.26 94.4165L229.542 95.7183L218.803 106.299L218.713 108.031L224.87 101.965L225.536 102.641L215.225 112.801L216.098 106.398Z" fill="#AFBDC4"/>
<path d="M174.967 57.781L141.13 91.1177L138.056 87.9985L170.253 56.278L174.967 57.781Z" fill="#8FA3AD"/>
<path d="M143.653 59.931C149.378 54.2912 157.763 52.2873 165.414 54.7331L170.252 56.2786L148.192 78.0124L130.913 72.483L143.66 59.9242L143.653 59.931Z" fill="#AFBDC4"/>
<path d="M148.191 78.012L138.055 87.9985L126.78 76.5542L130.913 72.4826L148.191 78.012Z" fill="#8FA3AD"/>
<path d="M151.408 80.991L128.21 103.846L123.549 99.1147L144.262 78.7082L151.408 80.991Z" fill="#AFBDC4"/>
<path d="M113.807 74.5121C116.411 71.9467 120.228 71.0321 123.705 72.145L144.26 78.7097L123.54 99.1231L113.021 88.4464C109.384 84.7549 109.437 78.8176 113.123 75.1861L113.8 74.519L113.807 74.5121Z" fill="#CED7DB"/>
<path d="M117.337 78.0345C119.529 75.8749 123.062 75.9005 125.221 78.0916C127.38 80.2828 127.353 83.8161 125.161 85.9757C122.969 88.1354 119.435 88.1098 117.276 85.9186C115.118 83.7274 115.145 80.1941 117.337 78.0345Z" stroke="white" stroke-width="0.748222" stroke-miterlimit="10"/>
<path d="M125.211 78.1026L128.967 74.4023" stroke="white" stroke-width="0.748222" stroke-miterlimit="10"/>
<path d="M117.275 85.9197L113.862 89.2829" stroke="white" stroke-width="0.748222" stroke-miterlimit="10"/>
<path d="M143.069 71.7897C142.116 70.8224 142.128 69.2653 143.095 68.3119C144.063 67.3585 145.62 67.3697 146.573 68.3371C147.526 69.3044 147.514 70.8615 146.547 71.815C145.579 72.7684 144.022 72.7571 143.069 71.7897Z" stroke="white" stroke-width="0.748222" stroke-miterlimit="10"/>
<path d="M152.076 60.7846C151.475 61.3761 151.468 62.3322 152.059 62.9323C152.651 63.5325 153.607 63.5394 154.207 62.9479C154.807 62.3564 154.815 61.4003 154.223 60.8002C153.632 60.2001 152.676 60.1932 152.076 60.7846Z" stroke="white" stroke-width="0.460444" stroke-miterlimit="10"/>
<path d="M152.062 62.9309L146.575 68.3369" stroke="white" stroke-width="0.460444" stroke-miterlimit="10"/>
<path d="M120.489 72.4328L128.856 64.1889L129.716 65.0614L125.286 69.4258L126.43 70.5871L127.986 69.0547L128.752 69.833L125.071 73.4604L120.489 72.4328Z" fill="#CED7DB"/>
<path d="M164.952 54.482L177.113 42.5005L175.831 41.1987L165.091 51.7794L163.358 51.8429L169.515 45.7773L168.849 45.1012L158.537 55.2603L164.952 54.482Z" fill="#AFBDC4"/>
<path d="M223.996 72.8548L211.391 60.0601L141.071 129.34L160.659 149.223L218.297 92.4374C219.731 91.024 220.708 89.2163 221.103 87.241L223.99 72.8606L223.996 72.8548Z" fill="#CED7DB"/>
<path d="M198.792 47.271L184.37 49.9441C182.389 50.309 180.567 51.2586 179.132 52.672L121.489 109.463L141.077 129.346L211.397 60.0657L198.797 47.2769L198.792 47.271Z" fill="#EBEEF0"/>
<path d="M169.01 101.743C175.681 108.514 186.579 108.593 193.353 101.92C200.127 95.2461 200.21 84.3472 193.539 77.5763C186.869 70.8053 175.97 70.7263 169.196 77.3998C162.422 84.0733 162.339 94.9722 169.01 101.743Z" fill="#455A64"/>
<path d="M190.985 99.5141C193.578 96.9596 194.94 93.6375 195.088 90.2717C194.894 90.4628 194.717 90.6716 194.523 90.8628C188.244 97.0493 179.987 100.006 171.82 99.7604C177.208 104.818 185.676 104.745 190.985 99.5141Z" fill="#42A4F5"/>
<path d="M194.518 90.8578C194.712 90.6667 194.894 90.4638 195.082 90.2667C195.209 87.4434 194.484 84.5905 192.886 82.134C192.633 82.4181 192.38 82.7022 192.104 82.9744C186.101 88.8887 176.438 88.8187 170.526 82.818C170.254 82.5418 170 82.2599 169.757 81.9663C166.18 87.3088 166.713 94.6126 171.398 99.3673C171.531 99.5025 171.658 99.6317 171.797 99.7495C179.965 99.9954 188.215 97.0442 194.5 90.8519L194.518 90.8578Z" fill="#64B4F5"/>
<path d="M192.115 82.976C192.391 82.7037 192.65 82.4255 192.897 82.1355C192.39 81.3616 191.806 80.6279 191.134 79.9462C185.772 74.5039 177.008 74.4404 171.564 79.8043C170.882 80.4763 170.281 81.2072 169.767 81.9679C170.016 82.2556 170.265 82.5433 170.537 82.8195C176.449 88.8202 186.112 88.8902 192.115 82.976Z" fill="#8FC9F7"/>
<path d="M168.43 63.2134L174.139 69.0083L150.961 91.8429L177.44 118.719L166.399 129.598L173.382 136.686" stroke="white" stroke-width="0.748222" stroke-miterlimit="10"/>
<path d="M166.578 76.4578L163.816 73.6543L140.21 96.9118L137.263 93.9203" stroke="white" stroke-width="0.748222" stroke-miterlimit="10"/>
<path d="M160.946 101.974L144.518 118.159L128.826 102.231" stroke="white" stroke-width="0.748222" stroke-miterlimit="10"/>
<path d="M175.184 116.426L180.182 111.502L185.88 117.285L209.621 93.8948L213.165 97.4916" stroke="white" stroke-width="0.748222" stroke-miterlimit="10"/>
<path d="M178.025 53.7598L203.914 80.0368L199.88 84.0105L209.62 93.896" stroke="white" stroke-width="0.748222" stroke-miterlimit="10"/>
<path d="M165.37 139.322C164.753 139.93 163.761 139.923 163.153 139.306C162.545 138.689 162.553 137.697 163.17 137.089C163.787 136.481 164.779 136.488 165.387 137.105C165.995 137.722 165.988 138.714 165.37 139.322Z" stroke="white" stroke-width="0.748222" stroke-miterlimit="10"/>
<path d="M212.352 90.8347C212.96 91.4514 213.953 91.4586 214.57 90.8508C215.186 90.2429 215.194 89.2502 214.586 88.6335C213.979 88.0168 212.986 88.0096 212.369 88.6174C211.752 89.2253 211.745 90.218 212.352 90.8347Z" stroke="white" stroke-width="0.748222" stroke-miterlimit="10"/>
<path d="M157.622 93.2148C157.005 93.823 156.013 93.8158 155.405 93.1987C154.797 92.5816 154.805 91.5897 155.422 90.9815C156.039 90.3732 157.031 90.3804 157.639 90.9975C158.247 91.6146 158.24 92.6066 157.622 93.2148Z" stroke="white" stroke-width="0.748222" stroke-miterlimit="10"/>
<path d="M135.21 103.853C134.593 104.461 133.601 104.454 132.993 103.837C132.385 103.22 132.392 102.228 133.01 101.62C133.627 101.012 134.619 101.019 135.227 101.636C135.835 102.253 135.827 103.245 135.21 103.853Z" stroke="white" stroke-width="0.748222" stroke-miterlimit="10"/>
<path d="M198.791 47.2692L218.127 44.3751C219.115 44.2247 220.023 43.7703 220.734 43.0694C222.586 41.2447 225.562 41.2662 227.386 43.1176L227.977 43.717L211.39 60.0581L198.791 47.2692Z" fill="#607D8A"/>
<path d="M223.996 72.8527L227.178 53.5611C227.343 52.5762 227.811 51.6751 228.522 50.9742C230.374 49.1495 230.397 46.1737 228.573 44.3224L227.982 43.7229L211.396 60.0639L223.996 72.8527Z" fill="#546E7A"/>
</g>
<defs>
<clipPath id="clip0_2002_2851">
<rect width="122" height="123" fill="white" transform="translate(271.23 87.6199) rotate(135.427)"/>
</clipPath>
</defs>
</svg>
