<svg width="139" height="196" viewBox="0 0 139 196" fill="none" xmlns="http://www.w3.org/2000/svg">
<mask id="mask0_14_18581" style="mask-type:luminance" maskUnits="userSpaceOnUse" x="31" y="20" width="163" height="162">
<path d="M112.399 181.932C157.006 181.932 193.166 145.77 193.166 101.162C193.166 56.5541 157.006 20.3921 112.399 20.3921C67.7933 20.3921 31.6328 56.5541 31.6328 101.162C31.6328 145.77 67.7933 181.932 112.399 181.932Z" fill="white"/>
</mask>
<g mask="url(#mask0_14_18581)">
<path d="M112.399 181.932C157.006 181.932 193.166 145.77 193.166 101.162C193.166 56.5541 157.006 20.3921 112.399 20.3921C67.7933 20.3921 31.6328 56.5541 31.6328 101.162C31.6328 145.77 67.7933 181.932 112.399 181.932Z" fill="url(#paint0_linear_14_18581)"/>
<g style="mix-blend-mode:multiply">
<path d="M75.1633 181.663C76.4421 180.435 77.5358 178.887 78.5958 177.221C79.6559 175.555 80.7496 173.738 81.9779 172.004C83.2231 170.271 84.6365 168.605 86.3696 167.192C88.1028 165.778 90.1556 164.634 92.6627 163.978C95.153 163.372 97.9798 163.406 100.807 162.8C103.617 162.245 106.141 160.949 108.866 159.889C111.576 158.829 114.672 157.937 118.087 158.492C121.503 159.048 125.407 161.689 126.215 164.769C126.433 165.61 126.416 166.435 126.871 167.259C127.931 169.177 130.892 170.204 133.265 170.456C135.637 170.709 138.128 170.608 140.231 171.651C143.159 173.115 143.815 176.093 142.974 178.129C142.132 180.166 140.147 181.781 139.676 183.649C138.969 186.493 141.93 189.387 140.803 191.827C140.113 193.308 138.178 194.351 135.688 195.024C133.197 195.697 130.219 195.949 127.392 195.983C123.909 196.017 120.494 195.882 117.246 195.68C113.999 195.478 110.97 195.26 108.193 195.108C105.4 194.99 102.809 194.923 100.352 194.923C97.8957 194.923 95.5568 194.99 93.3021 195.058C91.0137 195.175 88.8095 195.243 86.6725 195.243C84.5356 195.243 82.4491 195.159 80.4131 195.007C78.966 194.889 77.5358 194.721 76.1055 194.098C75.1128 193.661 74.1705 193.021 73.2619 192.382C71.3773 191.07 66.2958 188.613 68.0625 186.005C69.5433 183.8 73.2619 183.497 75.1633 181.663Z" fill="#CFD1D2"/>
</g>
<path d="M82.7844 176.901C84.5343 175.589 86.0655 174.007 87.479 172.408C88.8924 170.81 90.2048 169.211 91.5678 167.798C92.9139 166.384 94.2936 165.105 95.808 164.197C97.3224 163.271 98.9882 162.682 100.906 162.615C102.841 162.581 104.978 163.12 106.897 162.851C108.832 162.598 110.363 161.504 112.012 160.562C113.661 159.62 115.562 158.778 117.901 159.115C120.24 159.451 123.235 161.387 124.211 163.894C124.48 164.567 124.598 165.274 125.052 165.913C126.112 167.411 128.418 167.916 130.235 167.899C132.103 167.798 134.088 167.461 136.023 168.168C138.816 169.093 139.977 171.55 139.725 173.351C139.472 175.151 138.21 176.783 138.345 178.601C138.564 181.377 142.047 184.036 141.694 186.762C141.475 188.428 139.96 189.824 137.857 190.969C135.754 192.113 133.078 192.988 130.487 193.611C127.374 194.317 124.228 194.805 121.182 195.041C118.137 195.293 115.226 195.361 112.483 195.327C109.74 195.293 107.216 195.192 104.81 195.058C102.438 194.923 100.183 194.755 97.9954 194.553C95.8248 194.351 93.6879 194.132 91.5509 193.88C89.4308 193.627 87.277 193.375 85.1233 193.072C83.6089 192.853 82.0609 192.635 80.6138 191.877C79.6042 191.356 78.6956 190.598 77.787 189.858C75.9024 188.36 70.1983 186.089 73.0419 182.606C75.3976 179.694 80.0922 179.005 82.7507 176.884L82.7844 176.901Z" fill="url(#paint1_radial_14_18581)"/>
<g style="mix-blend-mode:screen">
<path d="M68.6505 25.575C66.6145 26.6856 64.3261 27.6616 62.2733 28.8731C58.3359 31.1953 55.5427 34.2578 53.4226 37.741C51.3025 41.2242 49.8386 45.1618 48.6439 49.2171C47.6007 52.7172 46.7089 56.5874 46.3892 60.5249C46.0863 64.4625 46.305 68.4673 47.668 72.1861C48.341 74.0539 49.3001 75.8376 50.7809 76.9987C53.5236 79.1694 57.646 78.7824 60.4897 80.6502C64.3597 83.2079 65.1506 89.3834 64.2924 95.1551C63.4175 100.927 61.3646 106.513 60.2373 112.033C59.0594 117.737 59.0763 123.677 60.6579 128.624C62.2228 133.571 65.2684 137.627 69.761 139.882C70.636 140.319 71.5951 140.689 72.571 140.588C73.3787 140.504 74.1022 140.1 74.7753 139.663C78.0228 137.576 80.5804 134.497 82.1957 130.997C83.811 127.48 84.5514 123.492 84.2149 119.504C84.0466 116.896 83.5082 114.288 83.5418 111.545C83.6091 107.456 84.9552 103.215 87.2436 99.6143C88.7075 97.309 90.4911 95.3234 92.1737 93.1864C95.1015 89.4507 97.7096 85.2608 99.8466 80.8857C101.984 76.5275 103.582 72.001 104.407 67.6091C105.483 61.8543 105.147 56.4023 104.979 51.0008C104.878 47.7531 104.726 44.5055 104.726 41.342C104.726 38.1617 104.878 35.0655 105.399 32.1208C105.921 29.176 106.93 26.3659 108.394 24.0774C109.875 21.7889 111.844 20.0052 114.317 19.1639C118.911 17.5653 124.464 19.2985 128.754 18.0365C130.908 17.397 132.894 15.3273 132.002 12.433C131.228 9.92579 128.721 8.36087 126.466 7.21662C122.529 5.23102 118.339 3.31273 113.981 2.50503C108.849 1.54588 103.885 2.13483 98.4668 2.25262C94.8155 2.33676 86.621 0.267023 84.5682 2.57234C83.2894 4.01947 83.2726 7.33441 82.5995 9.13491C81.8087 11.272 80.8496 13.3585 79.5876 15.3441C77.0637 19.3153 73.5469 22.8827 68.6336 25.5582L68.6505 25.575Z" fill="#1D262D"/>
</g>
<g style="mix-blend-mode:multiply">
<path d="M22.2269 94.6503C24.3807 89.6863 26.6018 84.5372 30.3877 80.8689C33.7361 77.6212 38.0605 75.8712 42.8056 75.1981C47.5674 74.525 52.7836 74.8447 57.9156 75.5851C63.0477 76.3424 68.2639 77.4193 73.48 78.0587C78.6962 78.6982 83.9124 78.8159 89.0276 77.6212C93.8568 76.4938 98.484 74.3231 102.909 71.3447C107.318 68.3831 111.508 64.6307 115.479 60.2052C119.45 55.7628 123.32 50.7483 127.055 45.5992C131.094 40.5511 135.115 35.789 139.019 31.5318C142.939 27.3081 146.641 23.4211 150.074 19.7359C153.506 16.0508 156.619 12.5003 159.379 9.05072C162.138 5.60117 164.511 2.16843 166.429 -1.28113C168.364 -4.73069 169.794 -8.31486 170.821 -12C174.085 -10.5192 177.063 -8.85333 179.671 -7.05283C182.279 -5.25233 184.551 -3.31721 186.52 -1.29795C188.488 0.721301 190.171 2.85834 191.618 5.07952C193.065 7.3007 194.293 9.60602 195.32 11.9786C196.346 14.3513 197.221 16.8249 197.945 19.3826C198.685 21.9403 199.308 24.599 199.863 27.3586C200.418 30.1183 200.923 33.0125 201.428 36.0246C201.933 39.0366 202.471 42.1833 203.11 45.4646C204.036 50.2099 205.197 55.1739 204.978 60.2725C204.928 64.8999 203.666 69.174 201.798 73.1452C199.947 77.1164 197.44 80.8184 194.983 84.3184C193.2 86.8761 191.366 89.4675 188.943 91.4195C184.467 95.0036 178.46 95.946 172.705 96.1142C167.388 96.4339 162.121 96.5517 156.905 96.7537C151.672 96.9556 146.49 97.1912 141.307 97.5277C136.125 97.8642 130.892 98.184 125.608 98.5205C120.325 98.8739 115.008 99.2272 109.657 99.6479C104.289 100.085 98.8879 100.422 93.453 100.775C88.018 101.129 82.5495 101.398 77.0809 101.869C72.3022 102.273 67.5403 102.811 63.4179 104.376C59.5815 105.823 56.5022 108.078 53.81 110.636C51.0841 113.16 48.6275 116.054 45.9184 118.797C43.6132 121.002 40.9547 123.139 37.8081 125.175C34.6616 127.211 31.0607 129.196 27.0392 131.182C23.0177 133.201 18.6261 135.17 13.9988 137.139C9.37154 139.091 4.64333 141.11 -0.0175781 143.18C0.487213 139.091 0.756435 134.699 1.68189 130.408C2.59051 126.1 3.85249 121.792 5.838 117.72C7.38603 114.557 11.172 110.434 14.4868 106.244C17.8016 102.054 20.5779 97.8138 22.2101 94.6839L22.2269 94.6503Z" fill="#CFD1D2"/>
</g>
<path d="M18.1204 102.458C20.0554 97.1576 22.2934 91.47 25.6923 87.1454C28.7042 83.3088 32.3219 80.8521 36.091 79.405C39.8601 77.9578 43.6797 77.6045 47.3142 77.8569C50.9319 78.1093 54.4991 78.917 58.2009 79.7247C62.2055 80.2127 66.4121 80.7848 71.2749 80.5492C76.3565 79.8761 82.0775 78.2607 88.5388 75.5684C91.7695 74.2222 95.1348 72.6068 98.5169 70.8231C101.916 69.0395 105.315 67.0875 108.613 65.0514C111.911 63.0154 115.024 60.9793 117.884 58.9432C120.744 56.9071 123.386 54.8878 125.759 52.8686C130.504 48.8469 134.357 44.8084 137.487 40.7194C140.6 36.6473 143.157 32.491 145.395 28.2169C147.515 24.0101 149.4 19.635 151.133 15.2095C152.866 10.784 154.397 6.29113 155.777 1.76464C157.157 -2.77868 158.368 -7.35566 159.445 -11.9495C171.106 -6.14411 180.31 3.76707 187.259 14.7888C190.742 20.2913 193.687 26.0966 196.396 32.0534C199.105 38.0271 201.595 44.2026 204.069 50.4287C205.869 54.9383 207.703 59.5658 207.972 64.6308C208.225 69.3087 207.518 74.1549 206.088 78.9338C204.658 83.6959 202.487 88.3906 199.812 92.6647C197.136 96.9388 193.889 100.826 190.254 103.989C186.62 107.153 182.598 109.593 178.308 111.006C173.579 112.571 168.599 113.715 163.366 114.523C157.729 115.398 151.621 115.937 144.672 116.408C141.189 116.643 137.453 116.929 133.465 117.266C129.494 117.603 125.304 117.973 120.946 118.377C116.588 118.78 112.163 119.184 107.788 119.504C103.413 119.824 99.1394 120.059 95.1011 120.076C91.0628 120.093 87.3105 119.941 83.8779 119.622C80.4453 119.302 77.3156 118.78 74.5056 118.124C68.9024 116.812 64.292 115.213 60.2705 113.867C56.5687 112.622 53.2034 111.797 50.0232 111.881C47.0786 111.696 44.3023 112.369 41.7615 113.985C39.2375 115.482 37.3698 118.107 35.9732 121.052C34.5766 123.98 33.6343 127.194 32.7762 130.156C32.0863 132.478 31.4133 134.632 30.6897 136.634C29.9662 138.636 29.1922 140.521 28.334 142.305C27.4759 144.088 26.4831 145.822 25.3726 147.605C24.262 149.389 22.9832 151.257 21.5866 153.192C19.8704 149.069 17.6829 144.425 15.7984 139.68C13.9138 134.918 12.3658 130.021 11.7264 125.528C11.2384 122.045 12.1975 117.956 13.5941 113.884C14.9907 109.812 16.8584 105.672 18.1204 102.475V102.458Z" fill="url(#paint2_radial_14_18581)"/>
<g style="mix-blend-mode:multiply">
<path d="M70.3675 134.699C73.9684 132.595 77.5188 130.374 81.8263 129.348C85.8646 128.389 90.3405 128.54 95.0182 129.163C99.7632 129.651 104.727 130.593 109.556 131.249C112.265 131.619 114.974 131.889 117.683 132.124C120.392 132.343 123.118 132.528 125.878 132.696C128.654 132.865 131.447 133.033 134.274 133.218C137.101 133.403 139.945 133.588 142.771 133.74C145.598 133.891 148.341 133.975 150.966 133.958C153.591 133.942 156.081 133.79 158.437 133.504C160.792 133.218 162.997 132.764 165.05 132.158C167.102 131.535 169.037 130.744 170.821 129.785C172.621 128.826 174.304 127.716 175.886 126.504C177.484 125.276 178.982 123.946 180.463 122.533C183.407 119.706 186.268 116.677 189.246 113.648C192.224 110.619 195.438 107.725 198.753 104.948C202.202 102.239 205.702 99.6142 209.286 97.1743C211.642 95.5757 214.098 93.994 216.353 92.2439C218.591 90.4939 220.61 88.5756 222.158 86.3208C221.872 88.5252 221.283 90.679 220.509 92.8161C219.718 94.9531 218.726 97.0733 217.632 99.1935C216.538 101.331 215.327 103.501 214.098 105.756C212.87 108.011 211.642 110.316 210.498 112.689C209.084 115.634 207.772 118.713 206.51 121.826C205.265 124.939 204.07 128.069 202.741 131.03C201.445 133.908 199.998 136.482 198.399 138.788C196.801 141.11 195.034 143.146 193.116 144.946C191.198 146.747 189.094 148.278 186.84 149.574C184.585 150.87 182.162 151.93 179.621 152.788C177.08 153.646 174.355 154.286 171.444 154.689C168.516 155.093 165.403 155.261 162.122 155.177C158.841 155.093 155.442 154.807 151.942 154.319C148.442 153.831 144.892 153.192 141.291 152.401C138.582 151.795 135.856 151.156 133.147 150.533C130.438 149.91 127.762 149.322 125.087 148.783C122.428 148.261 119.803 147.79 117.212 147.42C114.621 147.067 112.063 146.814 109.489 146.68C105.383 146.461 101.446 146.495 97.6936 146.781C93.9413 147.067 90.3741 147.639 86.9247 148.497C83.4921 149.338 80.1773 150.499 76.9803 151.896C73.7833 153.293 70.6536 154.858 67.5575 156.473C64.4615 158.088 61.4159 159.771 58.3535 161.437C55.2911 163.086 52.2455 164.718 49.1327 166.216C47.2144 167.141 45.2121 168.033 43.0078 168.033C38.4479 168.033 34.174 164.062 31.7678 159.738C29.8833 156.372 26.8209 148.901 29.0924 145.687C30.9602 143.028 35.7893 143.92 38.7003 144.021C44.2193 144.223 49.5197 143.533 54.7022 141.934C60.3558 140.184 65.5047 137.543 70.3675 134.699Z" fill="#CFD1D2"/>
</g>
<path d="M70.3171 136.886C73.9011 134.766 77.4347 132.511 81.7422 131.485C85.7974 130.542 90.2732 130.711 94.9677 131.367C99.7296 131.905 104.693 132.898 109.539 133.605C114.974 134.396 120.359 134.817 125.71 135.002C131.06 135.153 136.361 135.086 141.56 134.732C146.743 134.396 151.774 133.74 156.586 132.747C161.398 131.754 165.975 130.391 170.283 128.658C174.59 126.925 178.629 124.872 182.414 122.6C186.2 120.328 189.768 117.872 193.15 115.314C196.532 112.756 199.762 110.148 202.909 107.523C206.055 104.915 209.135 102.323 212.214 99.8161C216.286 96.518 220.543 93.1862 223 88.5083C222.848 93.018 221.67 97.3762 220.055 101.751C218.423 106.143 216.336 110.585 214.216 115.129C211.591 120.749 208.765 126.672 204.911 131.653C201.159 136.516 196.65 140.184 191.719 143.095C186.789 146.023 181.422 148.076 175.886 149.725C170.4 151.358 164.612 152.569 158.521 153.124C152.447 153.68 146.12 153.663 139.608 152.956C134.695 152.418 129.697 151.526 124.649 150.752C119.602 149.961 114.486 149.221 109.388 148.918C105.299 148.682 101.379 148.699 97.6431 148.985C93.9077 149.254 90.3405 149.843 86.9247 150.718C83.4922 151.593 80.211 152.788 77.0308 154.201C73.8506 155.632 70.7546 157.23 67.6754 158.896C64.5961 160.545 61.5674 162.278 58.5386 163.961C55.5099 165.644 52.4811 167.31 49.3851 168.824C47.4669 169.766 45.4814 170.675 43.2939 170.675C38.7508 170.692 34.4601 166.704 32.0203 162.329C30.1189 158.93 26.9723 151.341 29.2103 148.076C31.0612 145.384 35.8903 146.276 38.7845 146.377C44.2867 146.562 49.587 145.855 54.7359 144.206C60.3559 142.406 65.4879 139.713 70.3171 136.836V136.886Z" fill="url(#paint3_radial_14_18581)"/>
</g>
<g style="mix-blend-mode:multiply">
<path d="M157.83 60.6762C158.2 64.8662 152.395 68.7869 144.857 69.4432C137.336 70.0994 130.942 67.2388 130.571 63.0489C130.201 58.8589 136.006 54.9382 143.545 54.2819C151.066 53.6257 157.46 56.4863 157.83 60.6762Z" fill="#CFD1D2"/>
</g>
<path d="M157.898 61.299C158.235 65.1524 152.901 68.7534 145.985 69.3591C139.07 69.9649 133.197 67.3231 132.861 63.4697C132.524 59.6162 137.858 56.0152 144.774 55.4095C151.69 54.8037 157.562 57.4456 157.898 61.299Z" fill="url(#paint4_linear_14_18581)"/>
<g style="mix-blend-mode:multiply">
<path d="M133.785 168.117C134.155 172.307 128.35 176.228 120.812 176.884C113.291 177.541 106.897 174.68 106.527 170.49C106.156 166.3 111.961 162.379 119.5 161.723C127.021 161.067 133.415 163.927 133.785 168.117Z" fill="#CFD1D2"/>
</g>
<path d="M133.836 168.723C134.172 172.577 128.839 176.178 121.923 176.783C115.007 177.389 109.135 174.747 108.798 170.894C108.462 167.041 113.796 163.44 120.711 162.834C127.627 162.228 133.499 164.87 133.836 168.723Z" fill="url(#paint5_linear_14_18581)"/>
<g style="mix-blend-mode:multiply">
<path d="M139.187 113.598C140.112 115.97 137.42 119.251 133.163 120.901C128.906 122.55 124.699 121.961 123.774 119.588C122.848 117.215 125.541 113.934 129.798 112.285C134.055 110.636 138.261 111.225 139.187 113.598Z" fill="#CFD1D2"/>
</g>
<path d="M139.321 113.951C140.179 116.138 137.689 119.15 133.785 120.665C129.881 122.179 126.011 121.641 125.17 119.453C124.329 117.266 126.802 114.254 130.706 112.739C134.61 111.225 138.48 111.763 139.321 113.951Z" fill="url(#paint6_linear_14_18581)"/>
<g style="mix-blend-mode:multiply">
<path d="M53.625 126.066C53.1706 127.513 50.8486 128.052 48.4256 127.295C46.0026 126.538 44.4041 124.754 44.8584 123.307C45.3127 121.86 47.6348 121.321 50.0578 122.078C52.4808 122.836 54.0793 124.619 53.625 126.066Z" fill="#CFD1D2"/>
</g>
<path d="M53.5584 126.285C53.1378 127.615 51.0008 128.119 48.7797 127.413C46.5587 126.706 45.0948 125.074 45.4986 123.761C45.9193 122.432 48.0562 121.927 50.2773 122.634C52.4984 123.34 53.9623 124.973 53.5584 126.285Z" fill="url(#paint7_linear_14_18581)"/>
<g style="mix-blend-mode:multiply">
<path d="M95.0002 62.4935C95.0843 64.2772 92.5603 65.8589 89.3465 66.0104C86.1327 66.1618 83.4573 64.8493 83.3731 63.0656C83.289 61.2819 85.813 59.7002 89.0268 59.5488C92.2406 59.3973 94.916 60.7098 95.0002 62.4935Z" fill="#CFD1D2"/>
</g>
<path d="M95.0163 62.7627C95.1004 64.395 92.7784 65.8589 89.8169 65.9935C86.8723 66.145 84.3988 64.9334 84.3147 63.2844C84.2306 61.6521 86.5526 60.1882 89.5141 60.0536C92.4755 59.9189 94.9322 61.1137 95.0163 62.7627Z" fill="url(#paint8_linear_14_18581)"/>
<g style="mix-blend-mode:multiply">
<path d="M46.1206 70.7219C46.3898 71.5296 45.5485 72.5392 44.2361 72.9936C42.9236 73.4479 41.628 73.145 41.3587 72.3542C41.0895 71.5465 41.9308 70.5368 43.2433 70.0825C44.5558 69.6282 45.8514 69.931 46.1206 70.7219Z" fill="#CFD1D2"/>
</g>
<path d="M46.155 70.8396C46.4074 71.58 45.6334 72.5055 44.4219 72.9262C43.2104 73.3301 42.0325 73.0776 41.7801 72.3373C41.5277 71.5969 42.3017 70.6714 43.5132 70.2507C44.7247 69.8468 45.9026 70.0992 46.155 70.8396Z" fill="url(#paint9_linear_14_18581)"/>
<g style="mix-blend-mode:multiply">
<path d="M65.4026 49.4862C65.0661 50.3276 63.6527 50.5463 62.2561 49.9742C60.8427 49.4021 59.9845 48.2747 60.321 47.4333C60.6576 46.592 62.071 46.3732 63.4676 46.9453C64.881 47.5175 65.7391 48.6449 65.4026 49.4862Z" fill="#CFD1D2"/>
</g>
<path d="M65.3517 49.6039C65.0488 50.378 63.7532 50.5799 62.4575 50.0582C61.1619 49.5366 60.3711 48.4933 60.6739 47.7361C60.9768 46.9621 62.2724 46.7601 63.5681 47.2818C64.8637 47.8034 65.6545 48.8467 65.3517 49.6039Z" fill="url(#paint10_linear_14_18581)"/>
<g style="mix-blend-mode:multiply">
<path d="M129.63 30.0509C129.832 30.9259 128.788 31.9019 127.308 32.2384C125.827 32.5581 124.464 32.1206 124.279 31.2456C124.077 30.3706 125.12 29.3946 126.601 29.0581C128.082 28.7384 129.445 29.1759 129.63 30.0509Z" fill="#CFD1D2"/>
</g>
<path d="M129.664 30.1855C129.849 30.9932 128.89 31.8851 127.527 32.188C126.164 32.4909 124.919 32.0702 124.734 31.2625C124.549 30.4548 125.508 29.5629 126.871 29.26C128.234 28.9572 129.479 29.3778 129.664 30.1855Z" fill="url(#paint11_linear_14_18581)"/>
<g style="mix-blend-mode:multiply">
<path d="M103.868 94.179C103.346 95.929 100.351 96.5685 97.1879 95.6261C94.0245 94.6838 91.8707 92.4963 92.3923 90.7463C92.914 88.9963 95.9091 88.3568 99.0724 89.2991C102.236 90.2415 104.39 92.429 103.868 94.179Z" fill="#CFD1D2"/>
</g>
<path d="M103.801 94.4314C103.33 96.0299 100.57 96.6357 97.6593 95.7607C94.7483 94.8857 92.7796 92.8833 93.2676 91.2847C93.7556 89.6861 96.4983 89.0803 99.4092 89.9553C102.32 90.8304 104.289 92.8328 103.801 94.4314Z" fill="url(#paint12_linear_14_18581)"/>
<defs>
<linearGradient id="paint0_linear_14_18581" x1="69.896" y1="33.3995" x2="152.923" y2="165.775" gradientUnits="userSpaceOnUse">
<stop stop-color="#9258E2"/>
<stop offset="1" stop-color="#4630BA"/>
</linearGradient>
<radialGradient id="paint1_radial_14_18581" cx="0" cy="0" r="1" gradientUnits="userSpaceOnUse" gradientTransform="translate(79.5537 198.137) scale(56.7554 56.7579)">
<stop stop-color="#9258E2"/>
<stop offset="1" stop-color="#4630BA"/>
</radialGradient>
<radialGradient id="paint2_radial_14_18581" cx="0" cy="0" r="1" gradientUnits="userSpaceOnUse" gradientTransform="translate(109.807 70.5875) scale(90.7447 90.7486)">
<stop stop-color="#9258E2"/>
<stop offset="1" stop-color="#4630BA"/>
</radialGradient>
<radialGradient id="paint3_radial_14_18581" cx="0" cy="0" r="1" gradientUnits="userSpaceOnUse" gradientTransform="translate(125.726 129.634) scale(74.6755 74.6787)">
<stop stop-color="#9258E2"/>
<stop offset="1" stop-color="#4630BA"/>
</radialGradient>
<linearGradient id="paint4_linear_14_18581" x1="142.113" y1="70.157" x2="148.542" y2="54.4519" gradientUnits="userSpaceOnUse">
<stop stop-color="#9258E2"/>
<stop offset="1" stop-color="#4630BA"/>
</linearGradient>
<linearGradient id="paint5_linear_14_18581" x1="117.969" y1="177.896" x2="124.396" y2="162.17" gradientUnits="userSpaceOnUse">
<stop stop-color="#9258E2"/>
<stop offset="1" stop-color="#4630BA"/>
</linearGradient>
<linearGradient id="paint6_linear_14_18581" x1="130.995" y1="121.726" x2="132.09" y2="111.499" gradientUnits="userSpaceOnUse">
<stop stop-color="#9258E2"/>
<stop offset="1" stop-color="#4630BA"/>
</linearGradient>
<linearGradient id="paint7_linear_14_18581" x1="47.4985" y1="126.615" x2="51.8206" y2="122.458" gradientUnits="userSpaceOnUse">
<stop stop-color="#9258E2"/>
<stop offset="1" stop-color="#4630BA"/>
</linearGradient>
<linearGradient id="paint8_linear_14_18581" x1="87.9107" y1="66.4641" x2="90.9012" y2="59.8906" gradientUnits="userSpaceOnUse">
<stop stop-color="#9258E2"/>
<stop offset="1" stop-color="#4630BA"/>
</linearGradient>
<linearGradient id="paint9_linear_14_18581" x1="43.5599" y1="72.7508" x2="44.175" y2="69.4678" gradientUnits="userSpaceOnUse">
<stop stop-color="#9258E2"/>
<stop offset="1" stop-color="#4630BA"/>
</linearGradient>
<linearGradient id="paint10_linear_14_18581" x1="61.7584" y1="49.9419" x2="64.5302" y2="47.6678" gradientUnits="userSpaceOnUse">
<stop stop-color="#9258E2"/>
<stop offset="1" stop-color="#4630BA"/>
</linearGradient>
<linearGradient id="paint11_linear_14_18581" x1="127.07" y1="32.3815" x2="128.06" y2="28.9462" gradientUnits="userSpaceOnUse">
<stop stop-color="#9258E2"/>
<stop offset="1" stop-color="#4630BA"/>
</linearGradient>
<linearGradient id="paint12_linear_14_18581" x1="95.8419" y1="95.1493" x2="100.918" y2="89.8339" gradientUnits="userSpaceOnUse">
<stop stop-color="#9258E2"/>
<stop offset="1" stop-color="#4630BA"/>
</linearGradient>
</defs>
</svg>
