<svg width="201" height="201" viewBox="0 0 201 201" fill="none" xmlns="http://www.w3.org/2000/svg">
<g clip-path="url(#clip0_14_16466)">
<path d="M52.4786 54.999C39.2584 84.6546 51.1967 119.249 79.0625 134.731C81.1146 135.871 81.9466 138.397 80.9908 140.541C80.2104 142.291 78.4145 143.38 76.5046 143.223C70.8153 142.755 65.1099 141.338 59.6079 138.885C33.3833 127.195 21.5418 96.3715 33.1758 70.1357C34.2682 67.6719 33.3095 64.7118 30.9108 63.4839C28.3081 62.1517 25.1557 63.2875 23.9809 65.9228C10.0055 97.2723 24.1405 134.147 55.49 148.123C85.1831 161.36 119.831 149.377 135.284 121.435C136.403 119.413 138.891 118.595 141.001 119.536L141.103 119.581C142.824 120.348 143.894 122.115 143.741 123.994C143.278 129.701 141.86 135.424 139.4 140.943C127.709 167.167 96.8858 179.009 70.65 167.375C68.1862 166.282 65.2261 167.241 63.9982 169.64C62.666 172.242 63.8018 175.395 66.4371 176.57C97.7866 190.545 134.661 176.41 148.637 145.061C161.874 115.367 149.891 80.7196 121.95 65.2661C119.928 64.1478 119.109 61.6596 120.05 59.5491C120.818 57.8272 122.584 56.7576 124.463 56.9106C130.17 57.3745 135.892 58.7936 141.411 61.2537C167.635 72.9444 179.477 103.768 167.843 130.003C166.75 132.467 167.709 135.427 170.108 136.655C172.711 137.987 175.863 136.852 177.038 134.216C191.013 102.867 176.878 65.9919 145.529 52.0165C115.869 38.7941 81.2676 50.7379 65.7887 78.6132C64.6684 80.6307 62.1834 81.4459 60.0757 80.5063L60.0128 80.4782C58.2908 79.7106 57.2213 77.9443 57.374 76.0653C57.8376 70.3588 59.2561 64.6355 61.7164 59.1166C73.4072 32.8921 104.23 21.0506 130.466 32.6845C132.93 33.7771 135.89 32.8184 137.118 30.4196C138.45 27.8169 137.314 24.6645 134.679 23.4897C103.329 9.51459 66.4542 23.6491 52.4786 54.999Z" fill="#636978"/>
<path d="M83.9179 115.28C87.901 113.753 90.1443 109.944 88.9284 106.772C87.7126 103.6 83.498 102.266 79.5148 103.793C75.5317 105.32 73.2884 109.129 74.5042 112.301C75.7201 115.473 79.9347 116.807 83.9179 115.28Z" fill="#F2F6FC"/>
<path d="M123.01 100.295C126.993 98.7681 129.236 94.959 128.02 91.7871C126.804 88.6152 122.59 87.2816 118.607 88.8084C114.623 90.3353 112.38 94.1443 113.596 97.3162C114.812 100.488 119.027 101.822 123.01 100.295Z" fill="#F2F6FC"/>
<path d="M101.212 101.915C103.326 101.105 104.305 98.5297 103.398 96.1638C102.491 93.7978 100.042 92.5368 97.9279 93.3472C95.8136 94.1577 94.8348 96.7327 95.7418 99.0987C96.6487 101.465 99.0979 102.726 101.212 101.915Z" fill="#555A66"/>
<path d="M81.0774 104.263C79.9069 104.711 78.5949 104.126 78.1462 102.956L77.074 100.159C76.6253 98.988 77.2102 97.676 78.3807 97.2273C79.5512 96.7786 80.8632 97.3635 81.3119 98.534L82.3842 101.331C82.8328 102.502 82.248 103.814 81.0774 104.263Z" fill="#555A66"/>
<path d="M117.757 90.2022C116.587 90.6509 115.275 90.066 114.826 88.8955L113.754 86.0982C113.305 84.9277 113.89 83.6157 115.06 83.167C116.231 82.7183 117.543 83.3032 117.992 84.4737L119.064 87.271C119.513 88.4415 118.928 89.7535 117.757 90.2022Z" fill="#555A66"/>
<path d="M121.948 65.2657C157.354 88.6673 133.983 121.262 103.29 127.357C72.5965 133.452 54.3431 96.6232 57.372 76.0653C57.8355 70.3588 59.2538 64.6357 61.7141 59.1168C73.4048 32.8922 104.228 21.0508 130.464 32.6847C132.927 33.7773 135.887 32.8186 137.116 30.4197C138.448 27.8169 137.312 24.6646 134.677 23.4898C103.327 9.51451 66.4525 23.649 52.4769 54.9989C39.2566 84.6545 51.195 119.249 79.0608 134.731C81.1129 135.871 81.9448 138.397 80.989 140.541C80.2087 142.291 78.4127 143.38 76.5029 143.223C70.8135 142.755 65.1082 141.338 59.6061 138.885C33.3816 127.195 21.5401 96.3714 33.174 70.1356C34.2665 67.6718 33.3078 64.7117 30.909 63.4838C28.3064 62.1516 25.154 63.2874 23.9791 65.9227C10.0035 97.2723 24.1385 134.147 55.4882 148.123C85.1814 161.36 119.829 149.377 135.283 121.435C136.401 119.413 138.889 118.595 141 119.536L141.101 119.581C142.822 120.348 143.892 122.115 143.74 123.994C143.276 129.7 141.858 135.423 139.398 140.943C127.707 167.167 96.8841 179.009 70.6483 167.375C68.1847 166.282 65.2246 167.241 63.9964 169.64C62.6642 172.242 63.8 175.395 66.4354 176.57C97.7851 190.545 134.66 176.41 148.635 145.061C161.872 115.367 149.889 80.7193 121.948 65.2657Z" fill="#555A66"/>
</g>
<defs>
<clipPath id="clip0_14_16466">
<rect width="154.918" height="154.918" fill="white" transform="translate(0.447266 55.4492) rotate(-20.973)"/>
</clipPath>
</defs>
</svg>
