<svg width="223" height="228" viewBox="0 0 223 228" fill="none" xmlns="http://www.w3.org/2000/svg">
<g opacity="0.7" filter="url(#filter0_f_14_16576)">
<path d="M141.003 94.3062C142.552 91.8465 143.719 89.087 144.396 86.0901C147.598 71.9297 138.714 57.8548 124.554 54.653C110.393 51.4512 96.3186 60.3349 93.1168 74.4954C92.2969 78.1219 92.2713 81.7421 92.9222 85.1762L141.003 94.3062Z" fill="#A8E7EF"/>
<path d="M144.396 86.0907C143.72 89.0864 142.554 91.8461 141.003 94.3064L133.837 92.9458C135.386 90.4851 136.553 87.7254 137.23 84.7301C140.231 71.4698 132.63 58.2835 120.021 54.0327C121.523 54.1065 123.038 54.3089 124.556 54.6526C138.714 57.8552 147.599 71.9299 144.396 86.0907Z" fill="#70D9E6"/>
<path d="M169.164 94.0605C171.112 83.8321 149.786 71.1786 121.531 65.7981C93.2768 60.4177 68.7929 64.3477 66.8451 74.5761C64.8973 84.8044 86.2233 97.4579 114.478 102.838C142.733 108.219 167.217 104.289 169.164 94.0605Z" fill="#1C96F9"/>
<path d="M169.184 93.9962C167.241 104.229 142.752 108.174 114.483 102.806C98.7902 99.826 85.2327 94.6035 76.6094 88.7941C85.0063 93.2224 96.2295 97.0607 108.831 99.4536C137.098 104.821 161.588 100.879 163.532 90.6439C164.397 86.0879 160.647 81.0548 153.724 76.3982C164.178 81.9043 170.261 88.3217 169.184 93.9962Z" fill="#1785F8"/>
<path d="M146.502 99.0049C147.511 93.7076 134.808 86.8388 118.13 83.6628C101.452 80.4869 87.1145 82.2065 86.1058 87.5037C85.097 92.801 97.7995 99.6698 114.477 102.846C131.155 106.022 145.493 104.302 146.502 99.0049Z" fill="#D4F2F6"/>
<path d="M136.775 140.287L80.0007 129.506C78.7541 129.269 78.0142 127.974 78.4425 126.78L94.2685 82.6586C100.211 81.6021 108.802 81.844 118.126 83.6146C127.45 85.3853 135.531 88.3089 140.673 91.4704L139.224 138.322C139.184 139.59 138.021 140.523 136.775 140.287Z" fill="#D2F0A2"/>
<path d="M140.672 91.4694C135.53 88.3079 127.449 85.3841 118.125 83.6136C108.801 81.843 100.211 81.6011 94.2678 82.6577L92.2695 88.2255C96.0537 87.4201 101.081 87.1934 106.769 87.6143L100.722 111.831C100.515 112.661 101.019 113.502 101.849 113.709C101.975 113.74 102.101 113.755 102.225 113.755C102.919 113.755 103.551 113.285 103.727 112.582L109.889 87.9027C112.219 88.1612 114.636 88.5227 117.104 88.9913C119.572 89.4601 121.954 90.0098 124.217 90.6235L122.699 102.178C122.588 103.026 123.185 103.803 124.033 103.915C124.101 103.924 124.169 103.928 124.237 103.928C125.002 103.928 125.668 103.36 125.77 102.581L127.226 91.4989C132.672 93.1925 137.267 95.246 140.491 97.3822L140.672 91.4694Z" fill="#BCEA73"/>
<path d="M136.774 140.285L131.459 139.276L133.052 87.7903C136.002 88.935 138.581 90.1824 140.672 91.4693L139.222 138.321C139.183 139.589 138.02 140.522 136.774 140.285Z" fill="#BCEA73"/>
<path d="M82.3841 79.5245C82.7029 77.8504 81.3978 76.1955 79.469 75.8282C77.5403 75.461 75.7183 76.5203 75.3995 78.1944C75.0807 79.8685 76.3858 81.5233 78.3146 81.8906C80.2433 82.2579 82.0653 81.1985 82.3841 79.5245Z" fill="#D4F2F6"/>
<path d="M101.159 73.563C101.478 71.889 100.173 70.2341 98.2444 69.8668C96.3157 69.4995 94.4937 70.5589 94.1749 72.233C93.8561 73.907 95.1612 75.5619 97.09 75.9292C99.0187 76.2965 100.841 75.2371 101.159 73.563Z" fill="#D4F2F6"/>
<path d="M123.255 75.7466C123.574 74.0725 122.269 72.4177 120.34 72.0504C118.411 71.6831 116.589 72.7425 116.271 74.4166C115.952 76.0906 117.257 77.7455 119.186 78.1128C121.114 78.4801 122.936 77.4207 123.255 75.7466Z" fill="#D4F2F6"/>
<path d="M159.88 94.2764C160.199 92.6023 158.894 90.9475 156.965 90.5802C155.036 90.2129 153.214 91.2723 152.896 92.9463C152.577 94.6204 153.882 96.2753 155.811 96.6426C157.739 97.0099 159.561 95.9505 159.88 94.2764Z" fill="#D4F2F6"/>
<path d="M144.607 81.8335C144.926 80.1595 143.62 78.5046 141.692 78.1373C139.763 77.77 137.941 78.8294 137.622 80.5035C137.303 82.1776 138.608 83.8324 140.537 84.1997C142.466 84.567 144.288 83.5076 144.607 81.8335Z" fill="#D4F2F6"/>
<g clip-path="url(#clip0_14_16576)">
<path fill-rule="evenodd" clip-rule="evenodd" d="M62.0782 144.171C62.8141 143.036 62.2382 142.195 61.0691 141.519L60.8453 141.745C60.4056 142.191 59.8959 142.214 59.557 141.879L57.8304 140.174C56.6064 138.805 54.9291 140.45 56.2593 141.764L59.0465 144.517C59.7953 145.257 61.0145 145.248 61.7561 144.497L62.0782 144.171Z" fill="#FEB237"/>
<path fill-rule="evenodd" clip-rule="evenodd" d="M70.3973 132.076C70.9224 133.229 71.923 133.314 73.0624 133.051L73.3836 132.726C74.1252 131.975 74.1202 130.755 73.3713 130.015L70.5842 127.262C69.254 125.948 67.6282 127.647 69.0132 128.853L70.7398 130.558C71.0787 130.893 71.0608 131.404 70.6211 131.849L70.3973 132.076Z" fill="#FEB237"/>
<path fill-rule="evenodd" clip-rule="evenodd" d="M72.4474 130.164C73.1651 130.872 73.2007 132.021 72.5502 132.777C72.5213 132.81 72.4914 132.842 72.4606 132.873L72.1626 133.175C72.4474 133.169 72.7496 133.124 73.0613 133.052L73.0623 133.051L73.3834 132.726C74.125 131.975 74.1201 130.755 73.3712 130.015L70.5841 127.262C70.0008 126.686 69.3611 126.689 68.9439 126.975C69.1797 127.038 69.4236 127.177 69.6593 127.41L72.4474 130.164L72.4474 130.164Z" fill="#ECA026"/>
<path fill-rule="evenodd" clip-rule="evenodd" d="M59.5563 141.879L57.8296 140.174C57.0121 139.26 55.9927 139.69 55.8016 140.468C56.2012 140.324 56.7124 140.42 57.1607 140.923L58.8873 142.628C59.2262 142.963 60.1723 143.807 61.236 142.73L61.862 142.096C61.6477 141.891 61.3793 141.699 61.0693 141.52C61.0683 141.519 61.0683 141.519 61.0683 141.519L60.8446 141.745C60.4048 142.191 59.8951 142.214 59.5563 141.879Z" fill="#ECA026"/>
<path fill-rule="evenodd" clip-rule="evenodd" d="M63.2491 134.344C60.134 137.498 60.1589 142.621 63.3044 145.728L65.2463 147.646C68.606 150.965 69.9311 153.01 71.0556 155.662C71.9959 157.88 73.9096 156.62 73.9925 155.136C73.9888 154.571 74.215 154.057 74.5835 153.684C74.9519 153.311 75.4625 153.079 76.0284 153.075C77.1575 153.065 78.0688 152.143 78.0643 151.013C78.0588 149.883 78.9702 148.961 80.1002 148.952C80.6643 148.948 81.1748 148.716 81.5432 148.343C81.9116 147.97 82.1379 147.456 82.1351 146.892C82.1296 145.762 83.0409 144.84 84.171 144.831C85.6543 144.73 86.8903 142.801 84.6616 141.888C81.9959 140.796 79.934 139.496 76.5743 136.178L74.6324 134.26C71.487 131.153 66.3641 131.191 63.2491 134.344Z" fill="#00F2A6"/>
<path fill-rule="evenodd" clip-rule="evenodd" d="M62.324 135.574C65.4401 132.42 70.5628 132.382 73.7083 135.489L75.6502 137.407C79.0099 140.725 81.0709 142.026 83.7356 143.117C84.6795 143.504 85.0021 144.071 84.9484 144.604C85.9944 144.052 86.4798 142.631 84.6629 141.888C81.9973 140.796 79.9353 139.496 76.5756 136.178L74.6337 134.26C71.4882 131.153 66.3655 131.191 63.2504 134.345C62.8077 134.793 62.4283 135.28 62.1129 135.796C62.1813 135.721 62.2527 135.647 62.324 135.574Z" fill="#0ED290"/>
<path fill-rule="evenodd" clip-rule="evenodd" d="M78.3832 143.185C77.462 142.275 75.9618 142.286 75.0495 143.21L74.738 143.525L73.8905 144.853L72.5671 145.723L72.2604 146.033C71.348 146.957 71.3553 148.457 72.2765 149.367L73.3098 150.388C73.6633 150.737 74.238 150.732 74.5881 150.377L75.1166 149.842L76.2822 146.783L78.8932 146.019L79.4227 145.483C79.7718 145.129 79.77 144.555 79.4165 144.205L78.3832 143.185Z" fill="#025F80"/>
<path fill-rule="evenodd" clip-rule="evenodd" d="M78.994 145.916C78.253 145.184 77.0454 145.193 76.3115 145.936L75.0008 147.263C74.2668 148.006 74.2727 149.213 75.0138 149.945L78.994 145.916Z" fill="#FE3D97"/>
<path fill-rule="evenodd" clip-rule="evenodd" d="M73.0726 146.836L75.8616 144.012C76.774 143.088 78.2742 143.077 79.1954 143.987L78.3832 143.185C77.462 142.275 75.9618 142.286 75.0495 143.21L74.738 143.525L73.8906 144.853L72.5671 145.723L72.2604 146.033C71.3481 146.957 71.3554 148.457 72.2766 149.367L73.0888 150.169C72.1675 149.259 72.1602 147.759 73.0726 146.836Z" fill="#024C67"/>
<path fill-rule="evenodd" clip-rule="evenodd" d="M75.5752 146.687C76.3154 146.032 77.4561 146.051 78.167 146.753L78.9945 145.916C78.2534 145.184 77.0459 145.193 76.312 145.936L75.66 146.596C75.6311 146.625 75.6022 146.656 75.5752 146.687Z" fill="#E41E7F"/>
<path fill-rule="evenodd" clip-rule="evenodd" d="M72.5664 145.723L74.7373 143.525L75.2525 144.034C75.5359 144.314 75.5391 144.776 75.2585 145.06L74.1079 146.225C73.8273 146.509 73.365 146.512 73.0816 146.232L72.5664 145.723Z" fill="#DFF6FD"/>
<path fill-rule="evenodd" clip-rule="evenodd" d="M72.1377 143.124C73.8244 141.416 73.8111 138.67 72.1078 136.987C70.4056 135.306 67.658 135.325 65.9713 137.033C64.2855 138.74 64.2989 141.488 66.0012 143.169C67.7044 144.852 70.4519 144.83 72.1377 143.124Z" fill="#DFF6FD"/>
<path fill-rule="evenodd" clip-rule="evenodd" d="M71.3648 137.609C73.0515 139.275 73.0792 141.988 71.44 143.698C71.6873 143.535 71.9209 143.343 72.1379 143.124C73.8247 141.416 73.8113 138.67 72.108 136.987C70.4058 135.306 67.6583 135.325 65.9715 137.033C65.9561 137.048 65.9407 137.064 65.9262 137.081C67.6023 135.97 69.8807 136.143 71.3648 137.609Z" fill="#C8EFFE"/>
<path fill-rule="evenodd" clip-rule="evenodd" d="M67.2747 138.32C68.2487 137.334 69.8352 137.321 70.8187 138.293C71.8023 139.264 71.81 140.852 70.836 141.838C69.8619 142.824 68.2755 142.835 67.2919 141.863C67.1069 141.68 66.9557 141.477 66.8402 141.259C66.8138 141.208 66.7376 141.074 66.9758 141.032C67.1443 141.004 67.3038 140.924 67.433 140.793C67.7609 140.461 67.7583 139.926 67.4272 139.599C67.2743 139.448 67.0772 139.367 66.8795 139.357C66.641 139.345 66.7024 139.215 66.733 139.139C66.8537 138.842 67.0345 138.563 67.2747 138.32Z" fill="#025F80"/>
<path fill-rule="evenodd" clip-rule="evenodd" d="M67.2367 138.359C68.1554 137.939 69.2775 138.102 70.038 138.854C71.008 139.812 71.0282 141.369 70.0939 142.358C70.3636 142.235 70.6158 142.061 70.8366 141.838C71.8107 140.852 71.803 139.264 70.8194 138.293C69.8358 137.321 68.2494 137.334 67.2753 138.32C67.2628 138.333 67.2493 138.346 67.2367 138.359Z" fill="#024C67"/>
</g>
<g clip-path="url(#clip1_14_16576)">
<path fill-rule="evenodd" clip-rule="evenodd" d="M145.584 153.775C146.383 154.462 147.092 154.105 147.737 153.274L147.586 153.077C147.288 152.691 147.323 152.295 147.617 152.069L149.115 150.914C150.3 150.113 149.205 148.646 148.051 149.535L145.634 151.398C144.985 151.899 144.864 152.841 145.366 153.492L145.584 153.775Z" fill="#FEB237"/>
<path fill-rule="evenodd" clip-rule="evenodd" d="M154.05 161.464C153.105 161.748 152.934 162.512 153.018 163.419L153.235 163.701C153.737 164.352 154.68 164.476 155.329 163.976L157.746 162.112C158.9 161.223 157.759 159.79 156.683 160.733L155.186 161.887C154.892 162.114 154.499 162.046 154.201 161.66L154.05 161.464Z" fill="#FEB237"/>
<path fill-rule="evenodd" clip-rule="evenodd" d="M155.311 163.247C154.688 163.726 153.798 163.634 153.283 163.052C153.26 163.026 153.238 163 153.218 162.973L153.016 162.711C152.991 162.932 152.994 163.17 153.017 163.418L153.017 163.419L153.235 163.701C153.737 164.352 154.679 164.476 155.329 163.975L157.746 162.112C158.252 161.722 158.317 161.228 158.139 160.876C158.066 161.051 157.933 161.225 157.729 161.383L155.311 163.247L155.311 163.247Z" fill="#ECA026"/>
<path fill-rule="evenodd" clip-rule="evenodd" d="M147.617 152.069L149.114 150.914C149.905 150.379 149.68 149.547 149.099 149.318C149.168 149.641 149.041 150.026 148.606 150.319L147.108 151.474C146.814 151.7 146.064 152.342 146.784 153.276L147.207 153.826C147.389 153.682 147.565 153.495 147.736 153.274C147.736 153.274 147.736 153.274 147.736 153.274L147.585 153.077C147.287 152.691 147.323 152.295 147.617 152.069Z" fill="#ECA026"/>
<path fill-rule="evenodd" clip-rule="evenodd" d="M153.047 155.708C150.938 152.973 146.981 152.456 144.253 154.559L142.569 155.857C139.655 158.103 137.937 158.912 135.772 159.502C133.961 159.996 134.733 161.605 135.871 161.825C136.307 161.881 136.68 162.109 136.929 162.433C137.179 162.756 137.305 163.175 137.249 163.612C137.138 164.485 137.754 165.285 138.626 165.4C139.499 165.514 140.116 166.314 140.004 167.187C139.949 167.623 140.075 168.042 140.324 168.365C140.573 168.689 140.946 168.917 141.382 168.974C142.255 169.088 142.871 169.888 142.76 170.762C142.682 171.917 144.042 173.073 144.98 171.449C146.102 169.505 147.322 168.049 150.236 165.803L151.92 164.505C154.648 162.402 155.155 158.444 153.047 155.708Z" fill="#00F2A6"/>
<path fill-rule="evenodd" clip-rule="evenodd" d="M152.195 154.865C154.304 157.601 153.797 161.559 151.068 163.662L149.384 164.96C146.47 167.206 145.25 168.661 144.129 170.604C143.732 171.292 143.26 171.482 142.854 171.385C143.171 172.25 144.217 172.773 144.981 171.449C146.103 169.505 147.322 168.05 150.236 165.803L151.92 164.505C154.648 162.402 155.155 158.444 153.047 155.709C152.748 155.32 152.411 154.976 152.046 154.678C152.097 154.739 152.146 154.802 152.195 154.865Z" fill="#0ED290"/>
<path fill-rule="evenodd" clip-rule="evenodd" d="M144.637 166.465C145.436 165.849 145.585 164.69 144.967 163.889L144.757 163.615L143.82 162.822L143.287 161.709L143.08 161.44C142.462 160.639 141.303 160.487 140.504 161.103L139.608 161.794C139.302 162.03 139.245 162.474 139.482 162.782L139.84 163.246L142.08 164.466L142.396 166.562L142.755 167.027C142.991 167.333 143.435 167.392 143.741 167.156L144.637 166.465Z" fill="#025F80"/>
<path fill-rule="evenodd" clip-rule="evenodd" d="M142.464 166.651C143.107 166.156 143.227 165.223 142.73 164.578L141.843 163.427C141.346 162.783 140.413 162.661 139.771 163.156L142.464 166.651Z" fill="#FE3D97"/>
<path fill-rule="evenodd" clip-rule="evenodd" d="M142.375 161.983L144.263 164.432C144.881 165.233 144.732 166.392 143.933 167.008L144.637 166.465C145.436 165.849 145.585 164.69 144.967 163.889L144.757 163.615L143.82 162.822L143.287 161.709L143.08 161.44C142.462 160.639 141.303 160.487 140.504 161.103L139.8 161.646C140.599 161.03 141.758 161.182 142.375 161.983Z" fill="#024C67"/>
<path fill-rule="evenodd" clip-rule="evenodd" d="M142.228 163.931C142.657 164.571 142.522 165.449 141.906 165.925L142.466 166.651C143.108 166.156 143.228 165.223 142.731 164.578L142.29 164.006C142.27 163.98 142.249 163.955 142.228 163.931Z" fill="#E41E7F"/>
<path fill-rule="evenodd" clip-rule="evenodd" d="M143.287 161.709L144.756 163.615L144.31 163.96C144.064 164.149 143.707 164.103 143.517 163.857L142.738 162.846C142.548 162.6 142.595 162.243 142.84 162.053L143.287 161.709Z" fill="#DFF6FD"/>
<path fill-rule="evenodd" clip-rule="evenodd" d="M145.338 161.65C146.479 163.132 148.601 163.409 150.078 162.27C151.555 161.132 151.827 159.009 150.686 157.528C149.545 156.048 147.421 155.77 145.945 156.908C144.468 158.047 144.197 160.17 145.338 161.65Z" fill="#DFF6FD"/>
<path fill-rule="evenodd" clip-rule="evenodd" d="M149.678 161.631C148.215 162.759 146.118 162.496 144.969 161.052C145.069 161.26 145.192 161.46 145.339 161.651C146.481 163.132 148.603 163.409 150.08 162.27C151.556 161.132 151.829 159.009 150.687 157.528C150.677 157.515 150.666 157.501 150.655 157.488C151.337 158.899 150.965 160.639 149.678 161.631Z" fill="#C8EFFE"/>
<path fill-rule="evenodd" clip-rule="evenodd" d="M149.556 158.399C150.216 159.254 150.059 160.481 149.206 161.138C148.353 161.796 147.127 161.635 146.468 160.78C145.809 159.925 145.966 158.699 146.819 158.041C146.98 157.918 147.153 157.822 147.333 157.756C147.375 157.741 147.486 157.696 147.494 157.884C147.498 158.018 147.543 158.149 147.631 158.262C147.853 158.55 148.266 158.604 148.553 158.383C148.686 158.281 148.769 158.137 148.797 157.986C148.831 157.803 148.926 157.864 148.981 157.895C149.198 158.02 149.394 158.188 149.556 158.399Z" fill="#025F80"/>
<path fill-rule="evenodd" clip-rule="evenodd" d="M149.531 158.365C149.759 159.119 149.515 159.968 148.856 160.476C148.014 161.125 146.81 160.977 146.145 160.152C146.211 160.373 146.319 160.586 146.468 160.78C147.128 161.635 148.354 161.796 149.207 161.138C150.06 160.481 150.216 159.255 149.557 158.399C149.549 158.388 149.539 158.376 149.531 158.365Z" fill="#024C67"/>
</g>
<g clip-path="url(#clip2_14_16576)">
<path fill-rule="evenodd" clip-rule="evenodd" d="M112.564 119.022C113.895 120.166 115.076 119.572 116.15 118.187L115.898 117.86C115.402 117.216 115.462 116.557 115.951 116.179L118.446 114.257C120.42 112.921 118.596 110.477 116.674 111.959L112.648 115.063C111.566 115.897 111.365 117.466 112.201 118.551L112.564 119.022Z" fill="#FEB237"/>
<path fill-rule="evenodd" clip-rule="evenodd" d="M126.668 131.83C125.093 132.304 124.808 133.576 124.948 135.087L125.31 135.556C126.146 136.641 127.716 136.848 128.798 136.014L132.825 132.91C134.747 131.428 132.846 129.041 131.054 130.612L128.559 132.535C128.07 132.912 127.416 132.8 126.92 132.157L126.668 131.83Z" fill="#FEB237"/>
<path fill-rule="evenodd" clip-rule="evenodd" d="M128.768 134.8C127.731 135.599 126.249 135.445 125.39 134.476C125.352 134.433 125.316 134.389 125.281 134.344L124.945 133.908C124.903 134.276 124.908 134.672 124.947 135.085L124.948 135.087L125.31 135.557C126.146 136.641 127.716 136.848 128.798 136.014L132.824 132.91C133.667 132.26 133.775 131.437 133.48 130.851C133.358 131.143 133.137 131.433 132.796 131.695L128.768 134.8L128.768 134.8Z" fill="#ECA026"/>
<path fill-rule="evenodd" clip-rule="evenodd" d="M115.952 116.179L118.446 114.256C119.764 113.364 119.388 111.979 118.422 111.597C118.537 112.136 118.324 112.777 117.599 113.265L115.105 115.188C114.615 115.566 113.365 116.635 114.564 118.191L115.27 119.106C115.572 118.867 115.866 118.555 116.15 118.188C116.151 118.187 116.151 118.187 116.151 118.187L115.899 117.859C115.403 117.216 115.462 116.557 115.952 116.179Z" fill="#ECA026"/>
<path fill-rule="evenodd" clip-rule="evenodd" d="M124.997 122.243C121.485 117.687 114.892 116.825 110.348 120.328L107.542 122.49C102.689 126.232 99.8266 127.579 96.2199 128.562C93.2045 129.385 94.4905 132.066 96.385 132.431C97.1122 132.525 97.733 132.905 98.1483 133.444C98.5637 133.983 98.7737 134.68 98.6803 135.409C98.4954 136.862 99.5229 138.195 100.976 138.387C102.43 138.577 103.457 139.91 103.271 141.364C103.178 142.09 103.388 142.788 103.803 143.326C104.219 143.865 104.839 144.246 105.565 144.341C107.019 144.531 108.047 145.864 107.861 147.318C107.732 149.244 109.997 151.17 111.56 148.463C113.429 145.225 115.46 142.801 120.314 139.059L123.12 136.896C127.664 133.394 128.509 126.799 124.997 122.243Z" fill="#00F2A6"/>
<path fill-rule="evenodd" clip-rule="evenodd" d="M123.576 120.837C127.089 125.394 126.245 131.989 121.7 135.492L118.895 137.654C114.041 141.396 112.009 143.819 110.141 147.056C109.479 148.202 108.693 148.518 108.017 148.356C108.545 149.797 110.287 150.67 111.56 148.463C113.429 145.225 115.46 142.8 120.314 139.059L123.119 136.896C127.664 133.393 128.509 126.799 124.996 122.243C124.497 121.595 123.937 121.022 123.328 120.527C123.413 120.628 123.496 120.732 123.576 120.837Z" fill="#0ED290"/>
<path fill-rule="evenodd" clip-rule="evenodd" d="M110.987 140.161C112.317 139.135 112.565 137.204 111.536 135.869L111.185 135.414L109.625 134.092L108.737 132.239L108.392 131.79C107.363 130.456 105.433 130.203 104.102 131.229L102.609 132.38C102.098 132.773 102.005 133.513 102.399 134.025L102.995 134.798L106.726 136.831L107.253 140.322L107.85 141.097C108.244 141.607 108.983 141.705 109.494 141.312L110.987 140.161Z" fill="#025F80"/>
<path fill-rule="evenodd" clip-rule="evenodd" d="M107.368 140.471C108.439 139.646 108.638 138.091 107.811 137.018L106.333 135.101C105.506 134.027 103.952 133.824 102.881 134.65L107.368 140.471Z" fill="#FE3D97"/>
<path fill-rule="evenodd" clip-rule="evenodd" d="M107.218 132.694L110.363 136.774C111.391 138.108 111.144 140.039 109.813 141.065L110.987 140.161C112.317 139.135 112.565 137.204 111.536 135.869L111.185 135.414L109.625 134.092L108.737 132.239L108.392 131.79C107.363 130.456 105.432 130.203 104.102 131.229L102.928 132.134C104.259 131.108 106.19 131.36 107.218 132.694Z" fill="#024C67"/>
<path fill-rule="evenodd" clip-rule="evenodd" d="M106.972 135.939C107.687 137.006 107.462 138.469 106.435 139.261L107.368 140.471C108.439 139.646 108.638 138.091 107.811 137.018L107.076 136.064C107.043 136.022 107.008 135.979 106.972 135.939Z" fill="#E41E7F"/>
<path fill-rule="evenodd" clip-rule="evenodd" d="M108.738 132.239L111.186 135.414L110.442 135.988C110.032 136.303 109.437 136.227 109.121 135.816L107.824 134.133C107.507 133.723 107.585 133.128 107.994 132.812L108.738 132.239Z" fill="#DFF6FD"/>
<path fill-rule="evenodd" clip-rule="evenodd" d="M112.155 132.141C114.057 134.608 117.591 135.07 120.052 133.173C122.511 131.278 122.965 127.741 121.064 125.274C119.163 122.808 115.626 122.346 113.167 124.242C110.706 126.138 110.254 129.675 112.155 132.141Z" fill="#DFF6FD"/>
<path fill-rule="evenodd" clip-rule="evenodd" d="M119.382 132.109C116.945 133.988 113.452 133.55 111.539 131.143C111.705 131.49 111.91 131.824 112.155 132.141C114.057 134.608 117.591 135.07 120.052 133.173C122.511 131.278 122.965 127.741 121.064 125.274C121.046 125.251 121.029 125.229 121.01 125.207C122.146 127.557 121.526 130.456 119.382 132.109Z" fill="#C8EFFE"/>
<path fill-rule="evenodd" clip-rule="evenodd" d="M119.181 126.725C120.279 128.15 120.019 130.192 118.598 131.287C117.177 132.383 115.134 132.116 114.036 130.691C112.938 129.266 113.201 127.224 114.622 126.129C114.889 125.923 115.177 125.764 115.477 125.654C115.548 125.629 115.732 125.554 115.746 125.867C115.753 126.089 115.827 126.308 115.973 126.497C116.343 126.977 117.031 127.067 117.509 126.698C117.73 126.528 117.869 126.288 117.916 126.036C117.973 125.731 118.13 125.833 118.222 125.886C118.584 126.093 118.91 126.374 119.181 126.725Z" fill="#025F80"/>
<path fill-rule="evenodd" clip-rule="evenodd" d="M119.138 126.669C119.517 127.923 119.112 129.338 118.013 130.185C116.612 131.265 114.605 131.019 113.497 129.645C113.608 130.013 113.787 130.368 114.036 130.691C115.134 132.116 117.177 132.383 118.598 131.287C120.019 130.192 120.28 128.15 119.181 126.725C119.167 126.707 119.152 126.687 119.138 126.669Z" fill="#024C67"/>
</g>
<g clip-path="url(#clip3_14_16576)">
<path fill-rule="evenodd" clip-rule="evenodd" d="M112.564 119.022C113.895 120.166 115.076 119.572 116.15 118.187L115.898 117.86C115.402 117.216 115.462 116.557 115.951 116.179L118.446 114.257C120.42 112.921 118.596 110.477 116.674 111.959L112.648 115.063C111.566 115.897 111.365 117.466 112.201 118.551L112.564 119.022Z" fill="#FEB237"/>
<path fill-rule="evenodd" clip-rule="evenodd" d="M126.668 131.83C125.093 132.304 124.808 133.576 124.948 135.087L125.31 135.556C126.146 136.641 127.716 136.848 128.798 136.014L132.825 132.91C134.747 131.428 132.846 129.041 131.054 130.612L128.559 132.535C128.07 132.912 127.416 132.8 126.92 132.157L126.668 131.83Z" fill="#FEB237"/>
<path fill-rule="evenodd" clip-rule="evenodd" d="M128.768 134.8C127.731 135.599 126.249 135.445 125.39 134.476C125.352 134.433 125.316 134.389 125.281 134.344L124.945 133.908C124.903 134.276 124.908 134.672 124.947 135.085L124.948 135.087L125.31 135.557C126.146 136.641 127.716 136.848 128.798 136.014L132.824 132.91C133.667 132.26 133.775 131.437 133.48 130.851C133.358 131.143 133.137 131.433 132.796 131.695L128.768 134.8L128.768 134.8Z" fill="#ECA026"/>
<path fill-rule="evenodd" clip-rule="evenodd" d="M115.952 116.179L118.446 114.256C119.764 113.364 119.388 111.979 118.422 111.597C118.537 112.136 118.324 112.777 117.599 113.265L115.105 115.188C114.615 115.566 113.365 116.635 114.564 118.191L115.27 119.106C115.572 118.867 115.866 118.555 116.15 118.188C116.151 118.187 116.151 118.187 116.151 118.187L115.899 117.859C115.403 117.216 115.462 116.557 115.952 116.179Z" fill="#ECA026"/>
<path fill-rule="evenodd" clip-rule="evenodd" d="M124.997 122.243C121.485 117.687 114.892 116.825 110.348 120.328L107.542 122.49C102.689 126.232 99.8266 127.579 96.2199 128.562C93.2045 129.385 94.4905 132.066 96.385 132.431C97.1122 132.525 97.733 132.905 98.1483 133.444C98.5637 133.983 98.7737 134.68 98.6803 135.409C98.4954 136.862 99.5229 138.195 100.976 138.387C102.43 138.577 103.457 139.91 103.271 141.364C103.178 142.09 103.388 142.788 103.803 143.326C104.219 143.865 104.839 144.246 105.565 144.341C107.019 144.531 108.047 145.864 107.861 147.318C107.732 149.244 109.997 151.17 111.56 148.463C113.429 145.225 115.46 142.801 120.314 139.059L123.12 136.896C127.664 133.394 128.509 126.799 124.997 122.243Z" fill="#00F2A6"/>
<path fill-rule="evenodd" clip-rule="evenodd" d="M123.576 120.837C127.089 125.394 126.245 131.989 121.7 135.492L118.895 137.654C114.041 141.396 112.009 143.819 110.141 147.056C109.479 148.202 108.693 148.518 108.017 148.356C108.545 149.797 110.287 150.67 111.56 148.463C113.429 145.225 115.46 142.8 120.314 139.059L123.119 136.896C127.664 133.393 128.509 126.799 124.996 122.243C124.497 121.595 123.937 121.022 123.328 120.527C123.413 120.628 123.496 120.732 123.576 120.837Z" fill="#0ED290"/>
<path fill-rule="evenodd" clip-rule="evenodd" d="M110.987 140.161C112.317 139.135 112.565 137.204 111.536 135.869L111.185 135.414L109.625 134.092L108.737 132.239L108.392 131.79C107.363 130.456 105.433 130.203 104.102 131.229L102.609 132.38C102.098 132.773 102.005 133.513 102.399 134.025L102.995 134.798L106.726 136.831L107.253 140.322L107.85 141.097C108.244 141.607 108.983 141.705 109.494 141.312L110.987 140.161Z" fill="#025F80"/>
<path fill-rule="evenodd" clip-rule="evenodd" d="M107.368 140.471C108.439 139.646 108.638 138.091 107.811 137.018L106.333 135.101C105.506 134.027 103.952 133.824 102.881 134.65L107.368 140.471Z" fill="#FE3D97"/>
<path fill-rule="evenodd" clip-rule="evenodd" d="M107.218 132.694L110.363 136.774C111.391 138.108 111.144 140.039 109.813 141.065L110.987 140.161C112.317 139.135 112.565 137.204 111.536 135.869L111.185 135.414L109.625 134.092L108.737 132.239L108.392 131.79C107.363 130.456 105.432 130.203 104.102 131.229L102.928 132.134C104.259 131.108 106.19 131.36 107.218 132.694Z" fill="#024C67"/>
<path fill-rule="evenodd" clip-rule="evenodd" d="M106.972 135.939C107.687 137.006 107.462 138.469 106.435 139.261L107.368 140.471C108.439 139.646 108.638 138.091 107.811 137.018L107.076 136.064C107.043 136.022 107.008 135.979 106.972 135.939Z" fill="#E41E7F"/>
<path fill-rule="evenodd" clip-rule="evenodd" d="M108.738 132.239L111.186 135.414L110.442 135.988C110.032 136.303 109.437 136.227 109.121 135.816L107.824 134.133C107.507 133.723 107.585 133.128 107.994 132.812L108.738 132.239Z" fill="#DFF6FD"/>
<path fill-rule="evenodd" clip-rule="evenodd" d="M112.155 132.141C114.057 134.608 117.591 135.07 120.052 133.173C122.511 131.278 122.965 127.741 121.064 125.274C119.163 122.808 115.626 122.346 113.167 124.242C110.706 126.138 110.254 129.675 112.155 132.141Z" fill="#DFF6FD"/>
<path fill-rule="evenodd" clip-rule="evenodd" d="M119.382 132.109C116.945 133.988 113.452 133.55 111.539 131.143C111.705 131.49 111.91 131.824 112.155 132.141C114.057 134.608 117.591 135.07 120.052 133.173C122.511 131.278 122.965 127.741 121.064 125.274C121.046 125.251 121.029 125.229 121.01 125.207C122.146 127.557 121.526 130.456 119.382 132.109Z" fill="#C8EFFE"/>
<path fill-rule="evenodd" clip-rule="evenodd" d="M119.181 126.725C120.279 128.15 120.019 130.192 118.598 131.287C117.177 132.383 115.134 132.116 114.036 130.691C112.938 129.266 113.201 127.224 114.622 126.129C114.889 125.923 115.177 125.764 115.477 125.654C115.548 125.629 115.732 125.554 115.746 125.867C115.753 126.089 115.827 126.308 115.973 126.497C116.343 126.977 117.031 127.067 117.509 126.698C117.73 126.528 117.869 126.288 117.916 126.036C117.973 125.731 118.13 125.833 118.222 125.886C118.584 126.093 118.91 126.374 119.181 126.725Z" fill="#025F80"/>
<path fill-rule="evenodd" clip-rule="evenodd" d="M119.138 126.669C119.517 127.923 119.112 129.338 118.013 130.185C116.612 131.265 114.605 131.019 113.497 129.645C113.608 130.013 113.787 130.368 114.036 130.691C115.134 132.116 117.177 132.383 118.598 131.287C120.019 130.192 120.28 128.15 119.181 126.725C119.167 126.707 119.152 126.687 119.138 126.669Z" fill="#024C67"/>
</g>
<path fill-rule="evenodd" clip-rule="evenodd" d="M97.468 132.823C97.1497 132.62 96.7831 132.482 96.3844 132.431C94.4899 132.065 93.204 129.385 96.2194 128.562C99.826 127.579 102.688 126.232 107.542 122.49L110.347 120.328C111.044 119.791 111.789 119.356 112.564 119.022L112.201 118.551C111.365 117.466 111.566 115.897 112.648 115.063L116.674 111.959C117.312 111.467 117.94 111.408 118.421 111.597C118.435 111.603 118.449 111.608 118.463 111.614C118.48 111.622 118.498 111.63 118.516 111.639C118.533 111.647 118.551 111.656 118.568 111.665C119.423 112.123 119.695 113.412 118.445 114.257L115.951 116.179C115.461 116.557 115.402 117.216 115.898 117.859L116.15 118.187L116.15 118.188C118.707 118.057 121.285 118.86 123.328 120.527C123.771 120.887 124.188 121.289 124.575 121.731C124.72 121.896 124.86 122.066 124.996 122.243C127.17 125.063 127.675 128.664 126.666 131.83L126.667 131.83L126.919 132.157C127.415 132.8 128.069 132.912 128.558 132.535L131.053 130.612C132.083 129.709 133.15 130.114 133.505 130.903C133.719 131.38 133.674 131.997 133.204 132.551C133.099 132.674 132.973 132.795 132.824 132.91L128.797 136.014C127.715 136.848 126.145 136.641 125.309 135.556L124.947 135.087L124.946 135.085C124.426 135.749 123.816 136.359 123.119 136.896L122.289 137.536L97.468 132.823Z" fill="#D2F0A2" fill-opacity="0.87"/>
</g>
<path d="M141.003 81.3062C142.552 78.8465 143.719 76.087 144.396 73.0901C147.598 58.9297 138.714 44.8548 124.554 41.653C110.393 38.4512 96.3186 47.3349 93.1168 61.4954C92.2969 65.1219 92.2713 68.7421 92.9222 72.1762L141.003 81.3062Z" fill="#A8E7EF"/>
<path d="M144.396 73.0907C143.72 76.0864 142.554 78.8461 141.003 81.3064L133.837 79.9458C135.386 77.4851 136.553 74.7254 137.23 71.7301C140.231 58.4698 132.63 45.2835 120.021 41.0327C121.523 41.1065 123.038 41.3089 124.556 41.6526C138.714 44.8552 147.599 58.9299 144.396 73.0907Z" fill="#70D9E6"/>
<path d="M169.164 81.0605C171.112 70.8321 149.786 58.1786 121.531 52.7981C93.2768 47.4177 68.7929 51.3477 66.8451 61.5761C64.8973 71.8044 86.2233 84.4579 114.478 89.8384C142.733 95.2189 167.217 91.2889 169.164 81.0605Z" fill="#1C96F9"/>
<path d="M169.184 80.9962C167.241 91.2287 142.752 95.1738 114.483 89.8059C98.7902 86.826 85.2327 81.6035 76.6094 75.7941C85.0063 80.2224 96.2295 84.0607 108.831 86.4536C137.098 91.8213 161.588 87.8786 163.532 77.6439C164.397 73.0879 160.647 68.0548 153.724 63.3982C164.178 68.9043 170.261 75.3217 169.184 80.9962Z" fill="#1785F8"/>
<path d="M146.502 86.0049C147.511 80.7076 134.808 73.8388 118.13 70.6628C101.452 67.4869 87.1145 69.2065 86.1058 74.5037C85.097 79.801 97.7995 86.6698 114.477 89.8458C131.155 93.0217 145.493 91.3021 146.502 86.0049Z" fill="#D4F2F6"/>
<path d="M136.775 127.287L80.0007 116.506C78.7541 116.269 78.0142 114.974 78.4425 113.78L94.2685 69.6586C100.211 68.6021 108.802 68.844 118.126 70.6146C127.45 72.3853 135.531 75.3089 140.673 78.4704L139.224 125.322C139.184 126.59 138.021 127.523 136.775 127.287Z" fill="#D2F0A2"/>
<path d="M140.672 78.4694C135.53 75.3079 127.449 72.3841 118.125 70.6136C108.801 68.843 100.211 68.6011 94.2678 69.6577L92.2695 75.2255C96.0537 74.4201 101.081 74.1934 106.769 74.6143L100.722 98.8315C100.515 99.6612 101.019 100.502 101.849 100.709C101.975 100.74 102.101 100.755 102.225 100.755C102.919 100.755 103.551 100.285 103.727 99.5816L109.889 74.9027C112.219 75.1612 114.636 75.5227 117.104 75.9913C119.572 76.4601 121.954 77.0098 124.217 77.6235L122.699 89.1776C122.588 90.0256 123.185 90.8032 124.033 90.9146C124.101 90.9236 124.169 90.928 124.237 90.928C125.002 90.928 125.668 90.3605 125.77 89.5811L127.226 78.4989C132.672 80.1925 137.267 82.246 140.491 84.3822L140.672 78.4694Z" fill="#BCEA73"/>
<path d="M136.774 127.285L131.459 126.276L133.052 74.7903C136.002 75.935 138.581 77.1824 140.672 78.4693L139.222 125.321C139.183 126.589 138.02 127.522 136.774 127.285Z" fill="#BCEA73"/>
<path d="M82.3841 66.5245C82.7029 64.8504 81.3978 63.1955 79.469 62.8282C77.5403 62.461 75.7183 63.5203 75.3995 65.1944C75.0807 66.8685 76.3858 68.5233 78.3146 68.8906C80.2433 69.2579 82.0653 68.1985 82.3841 66.5245Z" fill="#D4F2F6"/>
<path d="M101.159 60.563C101.478 58.889 100.173 57.2341 98.2444 56.8668C96.3157 56.4995 94.4937 57.5589 94.1749 59.233C93.8561 60.907 95.1612 62.5619 97.09 62.9292C99.0187 63.2965 100.841 62.2371 101.159 60.563Z" fill="#D4F2F6"/>
<path d="M123.255 62.7466C123.574 61.0725 122.269 59.4177 120.34 59.0504C118.411 58.6831 116.589 59.7425 116.271 61.4166C115.952 63.0906 117.257 64.7455 119.186 65.1128C121.114 65.4801 122.936 64.4207 123.255 62.7466Z" fill="#D4F2F6"/>
<path d="M159.88 81.2764C160.199 79.6023 158.894 77.9475 156.965 77.5802C155.036 77.2129 153.214 78.2723 152.896 79.9463C152.577 81.6204 153.882 83.2753 155.811 83.6426C157.739 84.0099 159.561 82.9505 159.88 81.2764Z" fill="#D4F2F6"/>
<path d="M144.607 68.8335C144.926 67.1595 143.62 65.5046 141.692 65.1373C139.763 64.77 137.941 65.8294 137.622 67.5035C137.303 69.1776 138.608 70.8324 140.537 71.1997C142.466 71.567 144.288 70.5076 144.607 68.8335Z" fill="#D4F2F6"/>
<g clip-path="url(#clip4_14_16576)">
<path fill-rule="evenodd" clip-rule="evenodd" d="M62.0782 131.171C62.8141 130.036 62.2382 129.195 61.0691 128.519L60.8453 128.745C60.4056 129.191 59.8959 129.214 59.557 128.879L57.8304 127.174C56.6064 125.805 54.9291 127.45 56.2593 128.764L59.0465 131.517C59.7953 132.257 61.0145 132.248 61.7561 131.497L62.0782 131.171Z" fill="#FEB237"/>
<path fill-rule="evenodd" clip-rule="evenodd" d="M70.3973 119.076C70.9224 120.229 71.923 120.314 73.0624 120.051L73.3836 119.726C74.1252 118.975 74.1202 117.755 73.3713 117.015L70.5842 114.262C69.254 112.948 67.6282 114.647 69.0132 115.853L70.7398 117.558C71.0787 117.893 71.0608 118.404 70.6211 118.849L70.3973 119.076Z" fill="#FEB237"/>
<path fill-rule="evenodd" clip-rule="evenodd" d="M72.4474 117.164C73.1651 117.872 73.2007 119.021 72.5502 119.777C72.5213 119.81 72.4914 119.842 72.4606 119.873L72.1626 120.175C72.4474 120.169 72.7496 120.124 73.0613 120.052L73.0623 120.051L73.3834 119.726C74.125 118.975 74.1201 117.755 73.3712 117.015L70.5841 114.262C70.0008 113.686 69.3611 113.689 68.9439 113.975C69.1797 114.038 69.4236 114.177 69.6593 114.41L72.4474 117.164L72.4474 117.164Z" fill="#ECA026"/>
<path fill-rule="evenodd" clip-rule="evenodd" d="M59.5563 128.879L57.8296 127.174C57.0121 126.26 55.9927 126.69 55.8016 127.468C56.2012 127.324 56.7124 127.42 57.1607 127.923L58.8873 129.628C59.2262 129.963 60.1723 130.807 61.236 129.73L61.862 129.096C61.6477 128.891 61.3793 128.699 61.0693 128.52C61.0683 128.519 61.0683 128.519 61.0683 128.519L60.8446 128.745C60.4048 129.191 59.8951 129.214 59.5563 128.879Z" fill="#ECA026"/>
<path fill-rule="evenodd" clip-rule="evenodd" d="M63.2491 121.344C60.134 124.498 60.1589 129.621 63.3044 132.728L65.2463 134.646C68.606 137.965 69.9311 140.01 71.0556 142.662C71.9959 144.88 73.9096 143.62 73.9925 142.136C73.9888 141.571 74.215 141.057 74.5835 140.684C74.9519 140.311 75.4625 140.079 76.0284 140.075C77.1575 140.065 78.0688 139.143 78.0643 138.013C78.0588 136.883 78.9702 135.961 80.1002 135.952C80.6643 135.948 81.1748 135.716 81.5432 135.343C81.9116 134.97 82.1379 134.456 82.1351 133.892C82.1296 132.762 83.0409 131.84 84.171 131.831C85.6543 131.73 86.8903 129.801 84.6616 128.888C81.9959 127.796 79.934 126.496 76.5743 123.178L74.6324 121.26C71.487 118.153 66.3641 118.191 63.2491 121.344Z" fill="#00F2A6"/>
<path fill-rule="evenodd" clip-rule="evenodd" d="M62.324 122.574C65.4401 119.42 70.5628 119.382 73.7083 122.489L75.6502 124.407C79.0099 127.725 81.0709 129.026 83.7356 130.117C84.6795 130.504 85.0021 131.071 84.9484 131.604C85.9944 131.052 86.4798 129.631 84.6629 128.888C81.9973 127.796 79.9353 126.496 76.5756 123.178L74.6337 121.26C71.4882 118.153 66.3655 118.191 63.2504 121.345C62.8077 121.793 62.4283 122.28 62.1129 122.796C62.1813 122.721 62.2527 122.647 62.324 122.574Z" fill="#0ED290"/>
<path fill-rule="evenodd" clip-rule="evenodd" d="M78.3832 130.185C77.462 129.275 75.9618 129.286 75.0495 130.21L74.738 130.525L73.8905 131.853L72.5671 132.723L72.2604 133.033C71.348 133.957 71.3553 135.457 72.2765 136.367L73.3098 137.388C73.6633 137.737 74.238 137.732 74.5881 137.377L75.1166 136.842L76.2822 133.783L78.8932 133.019L79.4227 132.483C79.7718 132.129 79.77 131.555 79.4165 131.205L78.3832 130.185Z" fill="#025F80"/>
<path fill-rule="evenodd" clip-rule="evenodd" d="M78.994 132.916C78.253 132.184 77.0454 132.193 76.3115 132.936L75.0008 134.263C74.2668 135.006 74.2727 136.213 75.0138 136.945L78.994 132.916Z" fill="#FE3D97"/>
<path fill-rule="evenodd" clip-rule="evenodd" d="M73.0726 133.836L75.8616 131.012C76.774 130.088 78.2742 130.077 79.1954 130.987L78.3832 130.185C77.462 129.275 75.9618 129.286 75.0495 130.21L74.738 130.525L73.8906 131.853L72.5671 132.723L72.2604 133.033C71.3481 133.957 71.3554 135.457 72.2766 136.367L73.0888 137.169C72.1675 136.259 72.1602 134.759 73.0726 133.836Z" fill="#024C67"/>
<path fill-rule="evenodd" clip-rule="evenodd" d="M75.5752 133.687C76.3154 133.032 77.4561 133.051 78.167 133.753L78.9945 132.916C78.2534 132.184 77.0459 132.193 76.312 132.936L75.66 133.596C75.6311 133.625 75.6022 133.656 75.5752 133.687Z" fill="#E41E7F"/>
<path fill-rule="evenodd" clip-rule="evenodd" d="M72.5664 132.723L74.7373 130.525L75.2525 131.034C75.5359 131.314 75.5391 131.776 75.2585 132.06L74.1079 133.225C73.8273 133.509 73.365 133.512 73.0816 133.232L72.5664 132.723Z" fill="#DFF6FD"/>
<path fill-rule="evenodd" clip-rule="evenodd" d="M72.1377 130.124C73.8244 128.416 73.8111 125.67 72.1078 123.987C70.4056 122.306 67.658 122.325 65.9713 124.033C64.2855 125.74 64.2989 128.488 66.0012 130.169C67.7044 131.852 70.4519 131.83 72.1377 130.124Z" fill="#DFF6FD"/>
<path fill-rule="evenodd" clip-rule="evenodd" d="M71.3648 124.609C73.0515 126.275 73.0792 128.988 71.44 130.698C71.6873 130.535 71.9209 130.343 72.1379 130.124C73.8247 128.416 73.8113 125.67 72.108 123.987C70.4058 122.306 67.6583 122.325 65.9715 124.033C65.9561 124.048 65.9407 124.064 65.9262 124.081C67.6023 122.97 69.8807 123.143 71.3648 124.609Z" fill="#C8EFFE"/>
<path fill-rule="evenodd" clip-rule="evenodd" d="M67.2747 125.32C68.2487 124.334 69.8352 124.321 70.8187 125.293C71.8023 126.264 71.81 127.852 70.836 128.838C69.8619 129.824 68.2755 129.835 67.2919 128.863C67.1069 128.68 66.9557 128.477 66.8402 128.259C66.8138 128.208 66.7376 128.074 66.9758 128.032C67.1443 128.004 67.3038 127.924 67.433 127.793C67.7609 127.461 67.7583 126.926 67.4272 126.599C67.2743 126.448 67.0772 126.367 66.8795 126.357C66.641 126.345 66.7024 126.215 66.733 126.139C66.8537 125.842 67.0345 125.563 67.2747 125.32Z" fill="#025F80"/>
<path fill-rule="evenodd" clip-rule="evenodd" d="M67.2367 125.359C68.1554 124.939 69.2775 125.102 70.038 125.854C71.008 126.812 71.0282 128.369 70.0939 129.358C70.3636 129.235 70.6158 129.061 70.8366 128.838C71.8107 127.852 71.803 126.264 70.8194 125.293C69.8358 124.321 68.2494 124.334 67.2753 125.32C67.2628 125.333 67.2493 125.346 67.2367 125.359Z" fill="#024C67"/>
</g>
<g clip-path="url(#clip5_14_16576)">
<path fill-rule="evenodd" clip-rule="evenodd" d="M145.584 140.775C146.383 141.462 147.092 141.105 147.737 140.274L147.586 140.077C147.288 139.691 147.323 139.295 147.617 139.069L149.115 137.914C150.3 137.113 149.205 135.646 148.051 136.535L145.634 138.398C144.985 138.899 144.864 139.841 145.366 140.492L145.584 140.775Z" fill="#FEB237"/>
<path fill-rule="evenodd" clip-rule="evenodd" d="M154.05 148.464C153.105 148.748 152.934 149.512 153.018 150.419L153.235 150.701C153.737 151.352 154.68 151.476 155.329 150.976L157.746 149.112C158.9 148.223 157.759 146.79 156.683 147.733L155.186 148.887C154.892 149.114 154.499 149.046 154.201 148.66L154.05 148.464Z" fill="#FEB237"/>
<path fill-rule="evenodd" clip-rule="evenodd" d="M155.311 150.247C154.688 150.726 153.798 150.634 153.283 150.052C153.26 150.026 153.238 150 153.218 149.973L153.016 149.711C152.991 149.932 152.994 150.17 153.017 150.418L153.017 150.419L153.235 150.701C153.737 151.352 154.679 151.476 155.329 150.975L157.746 149.112C158.252 148.722 158.317 148.228 158.139 147.876C158.066 148.051 157.933 148.225 157.729 148.383L155.311 150.247L155.311 150.247Z" fill="#ECA026"/>
<path fill-rule="evenodd" clip-rule="evenodd" d="M147.617 139.069L149.114 137.914C149.905 137.379 149.68 136.547 149.099 136.318C149.168 136.641 149.041 137.026 148.606 137.319L147.108 138.474C146.814 138.7 146.064 139.342 146.784 140.276L147.207 140.826C147.389 140.682 147.565 140.495 147.736 140.274C147.736 140.274 147.736 140.274 147.736 140.274L147.585 140.077C147.287 139.691 147.323 139.295 147.617 139.069Z" fill="#ECA026"/>
<path fill-rule="evenodd" clip-rule="evenodd" d="M153.047 142.708C150.938 139.973 146.981 139.456 144.253 141.559L142.569 142.857C139.655 145.103 137.937 145.912 135.772 146.502C133.961 146.996 134.733 148.605 135.871 148.825C136.307 148.881 136.68 149.109 136.929 149.433C137.179 149.756 137.305 150.175 137.249 150.612C137.138 151.485 137.754 152.285 138.626 152.4C139.499 152.514 140.116 153.314 140.004 154.187C139.949 154.623 140.075 155.042 140.324 155.365C140.573 155.689 140.946 155.917 141.382 155.974C142.255 156.088 142.871 156.888 142.76 157.762C142.682 158.917 144.042 160.073 144.98 158.449C146.102 156.505 147.322 155.049 150.236 152.803L151.92 151.505C154.648 149.402 155.155 145.444 153.047 142.708Z" fill="#00F2A6"/>
<path fill-rule="evenodd" clip-rule="evenodd" d="M152.195 141.865C154.304 144.601 153.797 148.559 151.068 150.662L149.384 151.96C146.47 154.206 145.25 155.661 144.129 157.604C143.732 158.292 143.26 158.482 142.854 158.385C143.171 159.25 144.217 159.773 144.981 158.449C146.103 156.505 147.322 155.05 150.236 152.803L151.92 151.505C154.648 149.402 155.155 145.444 153.047 142.709C152.748 142.32 152.411 141.976 152.046 141.678C152.097 141.739 152.146 141.802 152.195 141.865Z" fill="#0ED290"/>
<path fill-rule="evenodd" clip-rule="evenodd" d="M144.637 153.465C145.436 152.849 145.585 151.69 144.967 150.889L144.757 150.615L143.82 149.822L143.287 148.709L143.08 148.44C142.462 147.639 141.303 147.487 140.504 148.103L139.608 148.794C139.302 149.03 139.245 149.474 139.482 149.782L139.84 150.246L142.08 151.466L142.396 153.562L142.755 154.027C142.991 154.333 143.435 154.392 143.741 154.156L144.637 153.465Z" fill="#025F80"/>
<path fill-rule="evenodd" clip-rule="evenodd" d="M142.464 153.651C143.107 153.156 143.227 152.223 142.73 151.578L141.843 150.427C141.346 149.783 140.413 149.661 139.771 150.156L142.464 153.651Z" fill="#FE3D97"/>
<path fill-rule="evenodd" clip-rule="evenodd" d="M142.375 148.983L144.263 151.432C144.881 152.233 144.732 153.392 143.933 154.008L144.637 153.465C145.436 152.849 145.585 151.69 144.967 150.889L144.757 150.615L143.82 149.822L143.287 148.709L143.08 148.44C142.462 147.639 141.303 147.487 140.504 148.103L139.8 148.646C140.599 148.03 141.758 148.182 142.375 148.983Z" fill="#024C67"/>
<path fill-rule="evenodd" clip-rule="evenodd" d="M142.228 150.931C142.657 151.571 142.522 152.449 141.906 152.925L142.466 153.651C143.108 153.156 143.228 152.223 142.731 151.578L142.29 151.006C142.27 150.98 142.249 150.955 142.228 150.931Z" fill="#E41E7F"/>
<path fill-rule="evenodd" clip-rule="evenodd" d="M143.287 148.709L144.756 150.615L144.31 150.96C144.064 151.149 143.707 151.103 143.517 150.857L142.738 149.846C142.548 149.6 142.595 149.243 142.84 149.053L143.287 148.709Z" fill="#DFF6FD"/>
<path fill-rule="evenodd" clip-rule="evenodd" d="M145.338 148.65C146.479 150.132 148.601 150.409 150.078 149.27C151.555 148.132 151.827 146.009 150.686 144.528C149.545 143.048 147.421 142.77 145.945 143.908C144.468 145.047 144.197 147.17 145.338 148.65Z" fill="#DFF6FD"/>
<path fill-rule="evenodd" clip-rule="evenodd" d="M149.678 148.631C148.215 149.759 146.118 149.496 144.969 148.052C145.069 148.26 145.192 148.46 145.339 148.651C146.481 150.132 148.603 150.409 150.08 149.27C151.556 148.132 151.829 146.009 150.687 144.528C150.677 144.515 150.666 144.501 150.655 144.488C151.337 145.899 150.965 147.639 149.678 148.631Z" fill="#C8EFFE"/>
<path fill-rule="evenodd" clip-rule="evenodd" d="M149.556 145.399C150.216 146.254 150.059 147.481 149.206 148.138C148.353 148.796 147.127 148.635 146.468 147.78C145.809 146.925 145.966 145.699 146.819 145.041C146.98 144.918 147.153 144.822 147.333 144.756C147.375 144.741 147.486 144.696 147.494 144.884C147.498 145.018 147.543 145.149 147.631 145.262C147.853 145.55 148.266 145.604 148.553 145.383C148.686 145.281 148.769 145.137 148.797 144.986C148.831 144.803 148.926 144.864 148.981 144.895C149.198 145.02 149.394 145.188 149.556 145.399Z" fill="#025F80"/>
<path fill-rule="evenodd" clip-rule="evenodd" d="M149.531 145.365C149.759 146.119 149.515 146.968 148.856 147.476C148.014 148.125 146.81 147.977 146.145 147.152C146.211 147.373 146.319 147.586 146.468 147.78C147.128 148.635 148.354 148.796 149.207 148.138C150.06 147.481 150.216 146.255 149.557 145.399C149.549 145.388 149.539 145.376 149.531 145.365Z" fill="#024C67"/>
</g>
<g clip-path="url(#clip6_14_16576)">
<path fill-rule="evenodd" clip-rule="evenodd" d="M112.564 106.022C113.895 107.166 115.076 106.572 116.15 105.187L115.898 104.86C115.402 104.216 115.462 103.557 115.951 103.179L118.446 101.257C120.42 99.9215 118.596 97.4773 116.674 98.9588L112.648 102.063C111.566 102.897 111.365 104.466 112.201 105.551L112.564 106.022Z" fill="#FEB237"/>
<path fill-rule="evenodd" clip-rule="evenodd" d="M126.668 118.83C125.093 119.304 124.808 120.576 124.948 122.087L125.31 122.556C126.146 123.641 127.716 123.848 128.798 123.014L132.825 119.91C134.747 118.428 132.846 116.041 131.054 117.612L128.559 119.535C128.07 119.912 127.416 119.8 126.92 119.157L126.668 118.83Z" fill="#FEB237"/>
<path fill-rule="evenodd" clip-rule="evenodd" d="M128.768 121.8C127.731 122.599 126.249 122.445 125.39 121.476C125.352 121.433 125.316 121.389 125.281 121.344L124.945 120.908C124.903 121.276 124.908 121.672 124.947 122.085L124.948 122.087L125.31 122.557C126.146 123.641 127.716 123.848 128.798 123.014L132.824 119.91C133.667 119.26 133.775 118.437 133.48 117.851C133.358 118.143 133.137 118.433 132.796 118.695L128.768 121.8L128.768 121.8Z" fill="#ECA026"/>
<path fill-rule="evenodd" clip-rule="evenodd" d="M115.952 103.179L118.446 101.256C119.764 100.364 119.388 98.9785 118.422 98.5972C118.537 99.136 118.324 99.7767 117.599 100.265L115.105 102.188C114.615 102.566 113.365 103.635 114.564 105.191L115.27 106.106C115.572 105.867 115.866 105.555 116.15 105.188C116.151 105.187 116.151 105.187 116.151 105.187L115.899 104.859C115.403 104.216 115.462 103.557 115.952 103.179Z" fill="#ECA026"/>
<path fill-rule="evenodd" clip-rule="evenodd" d="M124.997 109.243C121.485 104.687 114.892 103.825 110.348 107.328L107.542 109.49C102.689 113.232 99.8266 114.579 96.2199 115.562C93.2045 116.385 94.4905 119.066 96.385 119.431C97.1122 119.525 97.733 119.905 98.1483 120.444C98.5637 120.983 98.7737 121.68 98.6803 122.409C98.4954 123.862 99.5229 125.195 100.976 125.387C102.43 125.577 103.457 126.91 103.271 128.364C103.178 129.09 103.388 129.788 103.803 130.326C104.219 130.865 104.839 131.246 105.565 131.341C107.019 131.531 108.047 132.864 107.861 134.318C107.732 136.244 109.997 138.17 111.56 135.463C113.429 132.225 115.46 129.801 120.314 126.059L123.12 123.896C127.664 120.394 128.509 113.799 124.997 109.243Z" fill="#00F2A6"/>
<path fill-rule="evenodd" clip-rule="evenodd" d="M123.576 107.837C127.089 112.394 126.245 118.989 121.7 122.492L118.895 124.654C114.041 128.396 112.009 130.819 110.141 134.056C109.479 135.202 108.693 135.518 108.017 135.356C108.545 136.797 110.287 137.67 111.56 135.463C113.429 132.225 115.46 129.8 120.314 126.059L123.119 123.896C127.664 120.393 128.509 113.799 124.996 109.243C124.497 108.595 123.937 108.022 123.328 107.527C123.413 107.628 123.496 107.732 123.576 107.837Z" fill="#0ED290"/>
<path fill-rule="evenodd" clip-rule="evenodd" d="M110.987 127.161C112.317 126.135 112.565 124.204 111.536 122.869L111.185 122.414L109.625 121.092L108.737 119.239L108.392 118.79C107.363 117.456 105.433 117.203 104.102 118.229L102.609 119.38C102.098 119.773 102.005 120.513 102.399 121.025L102.995 121.798L106.726 123.831L107.253 127.322L107.85 128.097C108.244 128.607 108.983 128.705 109.494 128.312L110.987 127.161Z" fill="#025F80"/>
<path fill-rule="evenodd" clip-rule="evenodd" d="M107.368 127.471C108.439 126.646 108.638 125.091 107.811 124.018L106.333 122.101C105.506 121.027 103.952 120.824 102.881 121.65L107.368 127.471Z" fill="#FE3D97"/>
<path fill-rule="evenodd" clip-rule="evenodd" d="M107.218 119.694L110.363 123.774C111.391 125.108 111.144 127.039 109.813 128.065L110.987 127.161C112.317 126.135 112.565 124.204 111.536 122.869L111.185 122.414L109.625 121.092L108.737 119.239L108.392 118.79C107.363 117.456 105.432 117.203 104.102 118.229L102.928 119.134C104.259 118.108 106.19 118.36 107.218 119.694Z" fill="#024C67"/>
<path fill-rule="evenodd" clip-rule="evenodd" d="M106.972 122.939C107.687 124.006 107.462 125.469 106.435 126.261L107.368 127.471C108.439 126.646 108.638 125.091 107.811 124.018L107.076 123.064C107.043 123.022 107.008 122.979 106.972 122.939Z" fill="#E41E7F"/>
<path fill-rule="evenodd" clip-rule="evenodd" d="M108.738 119.239L111.186 122.414L110.442 122.988C110.032 123.303 109.437 123.227 109.121 122.816L107.824 121.133C107.507 120.723 107.585 120.128 107.994 119.812L108.738 119.239Z" fill="#DFF6FD"/>
<path fill-rule="evenodd" clip-rule="evenodd" d="M112.155 119.141C114.057 121.608 117.591 122.07 120.052 120.173C122.511 118.278 122.965 114.741 121.064 112.274C119.163 109.808 115.626 109.346 113.167 111.242C110.706 113.138 110.254 116.675 112.155 119.141Z" fill="#DFF6FD"/>
<path fill-rule="evenodd" clip-rule="evenodd" d="M119.382 119.109C116.945 120.988 113.452 120.55 111.539 118.143C111.705 118.49 111.91 118.824 112.155 119.141C114.057 121.608 117.591 122.07 120.052 120.173C122.511 118.278 122.965 114.741 121.064 112.274C121.046 112.251 121.029 112.229 121.01 112.207C122.146 114.557 121.526 117.456 119.382 119.109Z" fill="#C8EFFE"/>
<path fill-rule="evenodd" clip-rule="evenodd" d="M119.181 113.725C120.279 115.15 120.019 117.192 118.598 118.287C117.177 119.383 115.134 119.116 114.036 117.691C112.938 116.266 113.201 114.224 114.622 113.129C114.889 112.923 115.177 112.764 115.477 112.654C115.548 112.629 115.732 112.554 115.746 112.867C115.753 113.089 115.827 113.308 115.973 113.497C116.343 113.977 117.031 114.067 117.509 113.698C117.73 113.528 117.869 113.288 117.916 113.036C117.973 112.731 118.13 112.833 118.222 112.886C118.584 113.093 118.91 113.374 119.181 113.725Z" fill="#025F80"/>
<path fill-rule="evenodd" clip-rule="evenodd" d="M119.138 113.669C119.517 114.923 119.112 116.338 118.013 117.185C116.612 118.265 114.605 118.019 113.497 116.645C113.608 117.013 113.787 117.368 114.036 117.691C115.134 119.116 117.177 119.383 118.598 118.287C120.019 117.192 120.28 115.15 119.181 113.725C119.167 113.707 119.152 113.687 119.138 113.669Z" fill="#024C67"/>
</g>
<g clip-path="url(#clip7_14_16576)">
<path fill-rule="evenodd" clip-rule="evenodd" d="M112.564 106.022C113.895 107.166 115.076 106.572 116.15 105.187L115.898 104.86C115.402 104.216 115.462 103.557 115.951 103.179L118.446 101.257C120.42 99.9215 118.596 97.4773 116.674 98.9588L112.648 102.063C111.566 102.897 111.365 104.466 112.201 105.551L112.564 106.022Z" fill="#FEB237"/>
<path fill-rule="evenodd" clip-rule="evenodd" d="M126.668 118.83C125.093 119.304 124.808 120.576 124.948 122.087L125.31 122.556C126.146 123.641 127.716 123.848 128.798 123.014L132.825 119.91C134.747 118.428 132.846 116.041 131.054 117.612L128.559 119.535C128.07 119.912 127.416 119.8 126.92 119.157L126.668 118.83Z" fill="#FEB237"/>
<path fill-rule="evenodd" clip-rule="evenodd" d="M128.768 121.8C127.731 122.599 126.249 122.445 125.39 121.476C125.352 121.433 125.316 121.389 125.281 121.344L124.945 120.908C124.903 121.276 124.908 121.672 124.947 122.085L124.948 122.087L125.31 122.557C126.146 123.641 127.716 123.848 128.798 123.014L132.824 119.91C133.667 119.26 133.775 118.437 133.48 117.851C133.358 118.143 133.137 118.433 132.796 118.695L128.768 121.8L128.768 121.8Z" fill="#ECA026"/>
<path fill-rule="evenodd" clip-rule="evenodd" d="M115.952 103.179L118.446 101.256C119.764 100.364 119.388 98.9785 118.422 98.5972C118.537 99.136 118.324 99.7767 117.599 100.265L115.105 102.188C114.615 102.566 113.365 103.635 114.564 105.191L115.27 106.106C115.572 105.867 115.866 105.555 116.15 105.188C116.151 105.187 116.151 105.187 116.151 105.187L115.899 104.859C115.403 104.216 115.462 103.557 115.952 103.179Z" fill="#ECA026"/>
<path fill-rule="evenodd" clip-rule="evenodd" d="M124.997 109.243C121.485 104.687 114.892 103.825 110.348 107.328L107.542 109.49C102.689 113.232 99.8266 114.579 96.2199 115.562C93.2045 116.385 94.4905 119.066 96.385 119.431C97.1122 119.525 97.733 119.905 98.1483 120.444C98.5637 120.983 98.7737 121.68 98.6803 122.409C98.4954 123.862 99.5229 125.195 100.976 125.387C102.43 125.577 103.457 126.91 103.271 128.364C103.178 129.09 103.388 129.788 103.803 130.326C104.219 130.865 104.839 131.246 105.565 131.341C107.019 131.531 108.047 132.864 107.861 134.318C107.732 136.244 109.997 138.17 111.56 135.463C113.429 132.225 115.46 129.801 120.314 126.059L123.12 123.896C127.664 120.394 128.509 113.799 124.997 109.243Z" fill="#00F2A6"/>
<path fill-rule="evenodd" clip-rule="evenodd" d="M123.576 107.837C127.089 112.394 126.245 118.989 121.7 122.492L118.895 124.654C114.041 128.396 112.009 130.819 110.141 134.056C109.479 135.202 108.693 135.518 108.017 135.356C108.545 136.797 110.287 137.67 111.56 135.463C113.429 132.225 115.46 129.8 120.314 126.059L123.119 123.896C127.664 120.393 128.509 113.799 124.996 109.243C124.497 108.595 123.937 108.022 123.328 107.527C123.413 107.628 123.496 107.732 123.576 107.837Z" fill="#0ED290"/>
<path fill-rule="evenodd" clip-rule="evenodd" d="M110.987 127.161C112.317 126.135 112.565 124.204 111.536 122.869L111.185 122.414L109.625 121.092L108.737 119.239L108.392 118.79C107.363 117.456 105.433 117.203 104.102 118.229L102.609 119.38C102.098 119.773 102.005 120.513 102.399 121.025L102.995 121.798L106.726 123.831L107.253 127.322L107.85 128.097C108.244 128.607 108.983 128.705 109.494 128.312L110.987 127.161Z" fill="#025F80"/>
<path fill-rule="evenodd" clip-rule="evenodd" d="M107.368 127.471C108.439 126.646 108.638 125.091 107.811 124.018L106.333 122.101C105.506 121.027 103.952 120.824 102.881 121.65L107.368 127.471Z" fill="#FE3D97"/>
<path fill-rule="evenodd" clip-rule="evenodd" d="M107.218 119.694L110.363 123.774C111.391 125.108 111.144 127.039 109.813 128.065L110.987 127.161C112.317 126.135 112.565 124.204 111.536 122.869L111.185 122.414L109.625 121.092L108.737 119.239L108.392 118.79C107.363 117.456 105.432 117.203 104.102 118.229L102.928 119.134C104.259 118.108 106.19 118.36 107.218 119.694Z" fill="#024C67"/>
<path fill-rule="evenodd" clip-rule="evenodd" d="M106.972 122.939C107.687 124.006 107.462 125.469 106.435 126.261L107.368 127.471C108.439 126.646 108.638 125.091 107.811 124.018L107.076 123.064C107.043 123.022 107.008 122.979 106.972 122.939Z" fill="#E41E7F"/>
<path fill-rule="evenodd" clip-rule="evenodd" d="M108.738 119.239L111.186 122.414L110.442 122.988C110.032 123.303 109.437 123.227 109.121 122.816L107.824 121.133C107.507 120.723 107.585 120.128 107.994 119.812L108.738 119.239Z" fill="#DFF6FD"/>
<path fill-rule="evenodd" clip-rule="evenodd" d="M112.155 119.141C114.057 121.608 117.591 122.07 120.052 120.173C122.511 118.278 122.965 114.741 121.064 112.274C119.163 109.808 115.626 109.346 113.167 111.242C110.706 113.138 110.254 116.675 112.155 119.141Z" fill="#DFF6FD"/>
<path fill-rule="evenodd" clip-rule="evenodd" d="M119.382 119.109C116.945 120.988 113.452 120.55 111.539 118.143C111.705 118.49 111.91 118.824 112.155 119.141C114.057 121.608 117.591 122.07 120.052 120.173C122.511 118.278 122.965 114.741 121.064 112.274C121.046 112.251 121.029 112.229 121.01 112.207C122.146 114.557 121.526 117.456 119.382 119.109Z" fill="#C8EFFE"/>
<path fill-rule="evenodd" clip-rule="evenodd" d="M119.181 113.725C120.279 115.15 120.019 117.192 118.598 118.287C117.177 119.383 115.134 119.116 114.036 117.691C112.938 116.266 113.201 114.224 114.622 113.129C114.889 112.923 115.177 112.764 115.477 112.654C115.548 112.629 115.732 112.554 115.746 112.867C115.753 113.089 115.827 113.308 115.973 113.497C116.343 113.977 117.031 114.067 117.509 113.698C117.73 113.528 117.869 113.288 117.916 113.036C117.973 112.731 118.13 112.833 118.222 112.886C118.584 113.093 118.91 113.374 119.181 113.725Z" fill="#025F80"/>
<path fill-rule="evenodd" clip-rule="evenodd" d="M119.138 113.669C119.517 114.923 119.112 116.338 118.013 117.185C116.612 118.265 114.605 118.019 113.497 116.645C113.608 117.013 113.787 117.368 114.036 117.691C115.134 119.116 117.177 119.383 118.598 118.287C120.019 117.192 120.28 115.15 119.181 113.725C119.167 113.707 119.152 113.687 119.138 113.669Z" fill="#024C67"/>
</g>
<path fill-rule="evenodd" clip-rule="evenodd" d="M97.468 119.823C97.1497 119.62 96.7831 119.482 96.3844 119.431C94.4899 119.065 93.204 116.385 96.2194 115.562C99.826 114.579 102.688 113.232 107.542 109.49L110.347 107.328C111.044 106.791 111.789 106.356 112.564 106.022L112.201 105.551C111.365 104.466 111.566 102.897 112.648 102.063L116.674 98.9587C117.312 98.4667 117.94 98.4077 118.421 98.5972C118.435 98.6027 118.449 98.6085 118.463 98.6145C118.499 98.6301 118.534 98.647 118.568 98.6654C119.423 99.1227 119.695 100.412 118.445 101.257L115.951 103.179C115.461 103.557 115.402 104.216 115.898 104.859L116.15 105.187L116.15 105.188C118.707 105.057 121.285 105.86 123.328 107.527C123.771 107.887 124.188 108.289 124.575 108.731C124.72 108.896 124.86 109.066 124.996 109.243C127.17 112.063 127.675 115.664 126.666 118.83L126.667 118.83L126.919 119.157C127.415 119.8 128.069 119.912 128.558 119.535L131.053 117.612C132.083 116.709 133.15 117.114 133.505 117.903C133.719 118.38 133.674 118.997 133.204 119.551C133.099 119.674 132.973 119.795 132.824 119.91L128.797 123.014C127.715 123.848 126.145 123.641 125.309 122.556L124.947 122.087L124.946 122.085C124.426 122.749 123.816 123.359 123.119 123.896L122.289 124.536L97.468 119.823Z" fill="#D2F0A2" fill-opacity="0.87"/>
<defs>
<filter id="filter0_f_14_16576" x="0.400002" y="0.400002" width="222.507" height="227.182" filterUnits="userSpaceOnUse" color-interpolation-filters="sRGB">
<feFlood flood-opacity="0" result="BackgroundImageFix"/>
<feBlend mode="normal" in="SourceGraphic" in2="BackgroundImageFix" result="shape"/>
<feGaussianBlur stdDeviation="26.8" result="effect1_foregroundBlur_14_16576"/>
</filter>
<clipPath id="clip0_14_16576">
<rect width="24" height="24" fill="white" transform="translate(54 142.075) rotate(-45.3527)"/>
</clipPath>
<clipPath id="clip1_14_16576">
<rect width="18.6975" height="18.6975" fill="white" transform="translate(148.049 147.759) rotate(52.3738)"/>
</clipPath>
<clipPath id="clip2_14_16576">
<rect width="31.1464" height="31.1464" fill="white" transform="translate(116.668 109) rotate(52.3738)"/>
</clipPath>
<clipPath id="clip3_14_16576">
<rect width="31.1464" height="31.1464" fill="white" transform="translate(116.668 109) rotate(52.3738)"/>
</clipPath>
<clipPath id="clip4_14_16576">
<rect width="24" height="24" fill="white" transform="translate(54 129.075) rotate(-45.3527)"/>
</clipPath>
<clipPath id="clip5_14_16576">
<rect width="18.6975" height="18.6975" fill="white" transform="translate(148.049 134.759) rotate(52.3738)"/>
</clipPath>
<clipPath id="clip6_14_16576">
<rect width="31.1464" height="31.1464" fill="white" transform="translate(116.668 96) rotate(52.3738)"/>
</clipPath>
<clipPath id="clip7_14_16576">
<rect width="31.1464" height="31.1464" fill="white" transform="translate(116.668 96) rotate(52.3738)"/>
</clipPath>
</defs>
</svg>
