<svg width="149" height="126" viewBox="0 0 149 126" fill="none" xmlns="http://www.w3.org/2000/svg">
<mask id="mask0_149_1121" style="mask-type:luminance" maskUnits="userSpaceOnUse" x="33" y="34" width="174" height="174">
<path d="M120.301 207.554C168.042 207.554 206.744 168.852 206.744 121.111C206.744 73.3693 168.042 34.6672 120.301 34.6672C72.5595 34.6672 33.8574 73.3693 33.8574 121.111C33.8574 168.852 72.5595 207.554 120.301 207.554Z" fill="white"/>
</mask>
<g mask="url(#mask0_149_1121)">
<path d="M120.303 207.554C168.044 207.554 206.746 168.852 206.746 121.111C206.746 73.3694 168.044 34.6674 120.303 34.6674C72.5615 34.6674 33.8594 73.3694 33.8594 121.111C33.8594 168.852 72.5615 207.554 120.303 207.554Z" fill="url(#paint0_linear_149_1121)"/>
<g style="mix-blend-mode:screen">
<path d="M73.4794 40.2141C71.3003 41.4027 68.8511 42.4472 66.654 43.7438C62.4399 46.2291 59.4504 49.5067 57.1812 53.2346C54.9121 56.9625 53.3453 61.1766 52.0666 65.5168C50.9501 69.2627 49.9956 73.4048 49.6534 77.6189C49.3293 81.833 49.5634 86.1191 51.0221 90.0992C51.7425 92.0982 52.769 94.0071 54.3538 95.2497C57.2893 97.5729 61.7015 97.1587 64.745 99.1577C68.8871 101.895 69.7335 108.504 68.8151 114.682C67.8786 120.859 65.6815 126.838 64.4749 132.745C63.2143 138.85 63.2323 145.207 64.9251 150.502C66.6 155.796 69.8596 160.136 74.668 162.55C75.6045 163.018 76.631 163.414 77.6755 163.306C78.54 163.216 79.3144 162.784 80.0347 162.315C83.5105 160.082 86.2478 156.787 87.9767 153.041C89.7056 149.277 90.498 145.009 90.1378 140.741C89.9577 137.949 89.3814 135.158 89.4174 132.222C89.4895 127.846 90.9302 123.308 93.3794 119.454C94.9462 116.987 96.8552 114.862 98.6561 112.574C101.79 108.576 104.581 104.092 106.868 99.4098C109.155 94.7455 110.866 89.9011 111.749 85.2007C112.901 79.0416 112.541 73.2066 112.361 67.4257C112.253 63.95 112.091 60.4743 112.091 57.0885C112.091 53.6848 112.253 50.3712 112.811 47.2196C113.369 44.068 114.45 41.0605 116.017 38.6112C117.602 36.162 119.709 34.2531 122.356 33.3526C127.272 31.6417 133.215 33.4967 137.808 32.146C140.113 31.4617 142.238 29.2465 141.284 26.149C140.455 23.4656 137.772 21.7908 135.359 20.5662C131.144 18.4411 126.66 16.3881 121.996 15.5236C116.503 14.4971 111.19 15.1274 105.391 15.2535C101.484 15.3435 92.7131 13.1284 90.516 15.5957C89.1473 17.1444 89.1293 20.6922 88.4089 22.6192C87.5625 24.9064 86.536 27.1395 85.1853 29.2645C82.484 33.5147 78.7201 37.3326 73.4614 40.196L73.4794 40.2141Z" fill="#1D262D"/>
</g>
<g style="mix-blend-mode:multiply">
<path d="M23.7904 114.141C26.0956 108.829 28.4728 103.318 32.5248 99.3919C36.1086 95.9161 40.7369 94.0432 45.8155 93.3228C50.912 92.6025 56.4948 92.9446 61.9876 93.737C67.4804 94.5474 73.0632 95.7 78.646 96.3844C84.2288 97.0687 89.8116 97.1948 95.2864 95.9161C100.455 94.7095 105.407 92.3864 110.144 89.1988C114.862 86.0292 119.346 82.0131 123.597 77.2768C127.847 72.5224 131.989 67.1557 135.987 61.6449C140.309 56.2422 144.613 51.1456 148.791 46.5893C152.987 42.069 156.949 37.909 160.623 33.965C164.297 30.021 167.629 26.2211 170.582 22.5292C173.536 18.8374 176.075 15.1635 178.128 11.4716C180.199 7.77979 181.73 3.94386 182.828 -0.00012207C186.322 1.58468 189.51 3.36757 192.301 5.29454C195.093 7.22151 197.524 9.29255 199.631 11.4536C201.738 13.6147 203.539 15.9019 205.088 18.2791C206.636 20.6563 207.951 23.1235 209.05 25.6628C210.148 28.2021 211.085 30.8494 211.859 33.5868C212.651 36.3242 213.318 39.1696 213.912 42.1231C214.506 45.0766 215.047 48.1741 215.587 51.3977C216.127 54.6214 216.703 57.9891 217.388 61.5008C218.378 66.5794 219.621 71.8921 219.387 77.3488C219.333 82.3013 217.982 86.8756 215.983 91.1257C214.002 95.3759 211.319 99.3379 208.689 103.084C206.78 105.821 204.817 108.595 202.224 110.684C197.434 114.519 191.005 115.528 184.845 115.708C179.155 116.05 173.518 116.176 167.935 116.392C162.334 116.609 156.787 116.861 151.241 117.221C145.694 117.581 140.093 117.923 134.438 118.283C128.783 118.662 123.092 119.04 117.365 119.49C111.621 119.958 105.84 120.318 100.023 120.697C94.2058 121.075 88.3529 121.363 82.4999 121.867C77.3854 122.299 72.2888 122.876 67.8766 124.551C63.7705 126.099 60.4749 128.513 57.5934 131.25C54.6759 133.951 52.0466 137.049 49.1472 139.984C46.6799 142.344 43.8345 144.631 40.4668 146.81C37.0991 148.989 33.2452 151.114 28.941 153.239C24.6368 155.4 19.9365 157.507 14.984 159.614C10.0315 161.703 4.97093 163.864 -0.0175781 166.079C0.522694 161.703 0.810839 157.003 1.80134 152.411C2.77383 147.8 4.12451 143.19 6.24958 138.832C7.90641 135.446 11.9584 131.034 15.5062 126.55C19.054 122.065 22.0255 117.527 23.7724 114.177L23.7904 114.141Z" fill="#CFD1D2"/>
</g>
<path d="M19.3972 122.498C21.4683 116.825 23.8635 110.738 27.5013 106.109C30.7249 102.003 34.5969 99.3739 38.6309 97.8251C42.6649 96.2764 46.753 95.8982 50.643 96.1683C54.5149 96.4385 58.3328 97.3029 62.2948 98.1673C66.581 98.6896 71.0832 99.3019 76.2879 99.0498C81.7266 98.3294 87.8497 96.6005 94.7652 93.7191C98.2229 92.2784 101.825 90.5495 105.445 88.6405C109.082 86.7316 112.72 84.6425 116.25 82.4634C119.78 80.2843 123.111 78.1052 126.173 75.9261C129.234 73.747 132.062 71.5859 134.601 69.4249C139.68 65.1207 143.804 60.7985 147.154 56.4223C150.485 52.0641 153.223 47.6159 155.618 43.0416C157.887 38.5393 159.904 33.857 161.759 29.1206C163.614 24.3842 165.253 19.5758 166.729 14.7313C168.206 9.86889 169.503 4.97043 170.655 0.0539551C183.136 6.26708 192.987 16.8744 200.424 28.6704C204.152 34.5593 207.304 40.7724 210.203 47.1476C213.103 53.5409 215.768 60.1502 218.415 66.8135C220.342 71.64 222.305 76.5925 222.593 82.0132C222.864 87.0197 222.107 92.2063 220.576 97.3209C219.046 102.417 216.723 107.442 213.859 112.016C210.996 116.591 207.52 120.751 203.63 124.136C199.74 127.522 195.436 130.133 190.844 131.646C185.783 133.321 180.452 134.546 174.851 135.41C168.818 136.347 162.281 136.923 154.843 137.427C151.116 137.679 147.117 137.985 142.849 138.346C138.599 138.706 134.115 139.102 129.451 139.534C124.786 139.966 120.05 140.399 115.368 140.741C110.685 141.083 106.111 141.335 101.789 141.353C97.4665 141.371 93.4505 141.209 89.7766 140.867C86.1028 140.525 82.7531 139.966 79.7456 139.264C73.7486 137.859 68.8141 136.148 64.5099 134.708C60.5479 133.375 56.9461 132.493 53.5424 132.583C50.3908 132.385 47.4193 133.105 44.7 134.834C41.9986 136.437 39.9996 139.246 38.5049 142.398C37.0101 145.531 36.0016 148.971 35.0831 152.14C34.3448 154.626 33.6244 156.931 32.85 159.074C32.0756 161.217 31.2472 163.234 30.3287 165.143C29.4103 167.052 28.3477 168.907 27.1591 170.816C25.9705 172.725 24.6019 174.724 23.1071 176.795C21.2702 172.383 18.929 167.412 16.912 162.334C14.895 157.237 13.2381 151.996 12.5538 147.188C12.0315 143.46 13.0581 139.084 14.5528 134.726C16.0476 130.368 18.0466 125.937 19.3972 122.516V122.498Z" fill="url(#paint1_radial_149_1121)"/>
<g style="mix-blend-mode:multiply">
<path d="M75.3155 157.003C79.1694 154.752 82.9694 152.374 87.5797 151.276C91.9018 150.249 96.6923 150.411 101.699 151.078C106.777 151.6 112.09 152.609 117.259 153.311C120.158 153.707 123.058 153.995 125.957 154.247C128.856 154.481 131.774 154.68 134.727 154.86C137.699 155.04 140.688 155.22 143.714 155.418C146.739 155.616 149.783 155.814 152.808 155.976C155.834 156.138 158.769 156.228 161.579 156.21C164.388 156.192 167.054 156.03 169.575 155.724C172.096 155.418 174.455 154.932 176.652 154.283C178.85 153.617 180.921 152.771 182.83 151.744C184.757 150.718 186.557 149.529 188.25 148.232C189.961 146.918 191.564 145.495 193.149 143.982C196.3 140.957 199.362 137.715 202.55 134.473C205.737 131.232 209.177 128.134 212.725 125.163C216.416 122.263 220.162 119.454 223.998 116.843C226.52 115.132 229.149 113.439 231.562 111.566C233.957 109.693 236.118 107.64 237.775 105.227C237.469 107.586 236.839 109.891 236.01 112.178C235.164 114.465 234.101 116.734 232.931 119.004C231.76 121.291 230.464 123.614 229.149 126.027C227.834 128.44 226.52 130.908 225.295 133.447C223.782 136.598 222.377 139.894 221.027 143.226C219.694 146.557 218.415 149.907 216.993 153.077C215.606 156.156 214.057 158.912 212.346 161.379C210.636 163.864 208.745 166.043 206.692 167.97C204.639 169.897 202.387 171.536 199.974 172.923C197.561 174.309 194.968 175.444 192.248 176.362C189.529 177.281 186.611 177.965 183.496 178.397C180.362 178.83 177.031 179.01 173.519 178.92C170.007 178.83 166.369 178.524 162.623 178.001C158.878 177.479 155.078 176.795 151.224 175.948C148.324 175.3 145.407 174.616 142.507 173.949C139.608 173.283 136.744 172.653 133.881 172.076C131.036 171.518 128.226 171.014 125.453 170.618C122.679 170.239 119.942 169.969 117.187 169.825C112.792 169.591 108.578 169.627 104.562 169.933C100.546 170.239 96.7283 170.852 93.0364 171.77C89.3626 172.671 85.8148 173.913 82.3931 175.408C78.9713 176.903 75.6217 178.578 72.308 180.306C68.9943 182.035 65.7347 183.836 62.457 185.619C59.1794 187.384 55.9197 189.131 52.5881 190.734C50.535 191.724 48.392 192.679 46.0328 192.679C41.1523 192.679 36.578 188.429 34.0027 183.8C31.9857 180.198 28.7081 172.202 31.1393 168.763C33.1383 165.917 38.3069 166.872 41.4224 166.98C47.3294 167.196 53.0023 166.457 58.5491 164.747C64.6001 162.874 70.1109 160.046 75.3155 157.003Z" fill="#CFD1D2"/>
</g>
<path d="M75.2588 159.344C79.0947 157.075 82.8766 154.662 87.4869 153.563C91.8271 152.555 96.6175 152.735 101.642 153.437C106.739 154.013 112.051 155.076 117.238 155.832C123.055 156.679 128.818 157.129 134.545 157.327C140.271 157.489 145.944 157.417 151.509 157.039C157.056 156.679 162.441 155.976 167.591 154.914C172.742 153.851 177.64 152.393 182.251 150.538C186.861 148.683 191.183 146.486 195.235 144.054C199.287 141.623 203.105 138.994 206.725 136.256C210.345 133.519 213.802 130.728 217.17 127.918C220.538 125.127 223.834 122.353 227.129 119.67C231.487 116.14 236.044 112.575 238.673 107.568C238.511 112.394 237.25 117.059 235.521 121.741C233.775 126.441 231.541 131.196 229.272 136.058C226.463 142.073 223.437 148.413 219.313 153.743C215.297 158.948 210.471 162.874 205.194 165.989C199.917 169.123 194.173 171.32 188.248 173.085C182.377 174.832 176.182 176.128 169.662 176.723C163.161 177.317 156.39 177.299 149.42 176.543C144.161 175.966 138.813 175.012 133.41 174.184C128.007 173.337 122.533 172.545 117.076 172.221C112.7 171.968 108.503 171.986 104.505 172.293C100.507 172.581 96.6895 173.211 93.0337 174.147C89.3598 175.084 85.8481 176.363 82.4444 177.875C79.0407 179.406 75.727 181.117 72.4313 182.9C69.1357 184.665 65.894 186.52 62.6524 188.321C59.4108 190.122 56.1691 191.904 52.8555 193.525C50.8025 194.534 48.6774 195.506 46.3362 195.506C41.4738 195.524 36.8814 191.256 34.2701 186.574C32.2351 182.936 28.8674 174.814 31.2626 171.32C33.2436 168.439 38.4122 169.393 41.5098 169.501C47.3987 169.699 53.0716 168.943 58.5824 167.178C64.5974 165.251 70.0902 162.37 75.2588 159.29V159.344Z" fill="url(#paint2_radial_149_1121)"/>
</g>
<g style="mix-blend-mode:multiply">
<path d="M168.925 77.7809C169.321 82.2651 163.108 86.4613 155.04 87.1636C146.99 87.866 140.147 84.8044 139.75 80.3202C139.354 75.8359 145.567 71.6398 153.635 70.9374C161.685 70.2351 168.529 73.2966 168.925 77.7809Z" fill="#CFD1D2"/>
</g>
<path d="M168.997 78.4474C169.357 82.5714 163.649 86.4254 156.247 87.0737C148.845 87.722 142.56 84.8946 142.2 80.7705C141.84 76.6464 147.548 72.7925 154.95 72.1442C162.352 71.4959 168.637 74.3233 168.997 78.4474Z" fill="url(#paint3_linear_149_1121)"/>
<g style="mix-blend-mode:multiply">
<path d="M101.681 79.7261C101.771 81.635 99.0695 83.3279 95.6298 83.49C92.19 83.6521 89.3266 82.2473 89.2366 80.3384C89.1465 78.4294 91.8479 76.7366 95.2876 76.5745C98.7273 76.4124 101.591 77.8171 101.681 79.7261Z" fill="#CFD1D2"/>
</g>
<path d="M101.7 80.0144C101.79 81.7613 99.3051 83.3281 96.1355 83.4721C92.9839 83.6342 90.3366 82.3376 90.2465 80.5727C90.1565 78.8258 92.6417 77.259 95.8113 77.1149C98.9809 76.9709 101.61 78.2495 101.7 80.0144Z" fill="url(#paint4_linear_149_1121)"/>
<g style="mix-blend-mode:multiply">
<path d="M49.3631 88.5325C49.6513 89.3969 48.7508 90.4775 47.3461 90.9637C45.9414 91.4499 44.5547 91.1258 44.2666 90.2794C43.9784 89.4149 44.8789 88.3344 46.2836 87.8481C47.6883 87.3619 49.075 87.6861 49.3631 88.5325Z" fill="#CFD1D2"/>
</g>
<path d="M49.3994 88.6585C49.6696 89.4509 48.8411 90.4414 47.5445 90.8916C46.2478 91.3238 44.9872 91.0537 44.7171 90.2613C44.4469 89.4689 45.2754 88.4784 46.572 88.0282C47.8687 87.596 49.1293 87.8661 49.3994 88.6585Z" fill="url(#paint5_linear_149_1121)"/>
<g style="mix-blend-mode:multiply">
<path d="M70.0012 65.8051C69.6411 66.7056 68.1283 66.9397 66.6335 66.3274C65.1208 65.7151 64.2023 64.5085 64.5625 63.608C64.9227 62.7076 66.4354 62.4735 67.9302 63.0858C69.443 63.6981 70.3614 64.9047 70.0012 65.8051Z" fill="#CFD1D2"/>
</g>
<path d="M69.9467 65.9314C69.6225 66.7598 68.2358 66.9759 66.8492 66.4176C65.4625 65.8594 64.616 64.7428 64.9402 63.9324C65.2644 63.104 66.6511 62.8879 68.0377 63.4461C69.4244 64.0044 70.2709 65.121 69.9467 65.9314Z" fill="url(#paint6_linear_149_1121)"/>
<g style="mix-blend-mode:multiply">
<path d="M138.742 45.0044C138.958 45.9409 137.841 46.9854 136.257 47.3456C134.672 47.6878 133.213 47.2195 133.015 46.2831C132.799 45.3466 133.915 44.3021 135.5 43.9419C137.085 43.5997 138.544 44.068 138.742 45.0044Z" fill="#CFD1D2"/>
</g>
<path d="M138.778 45.1485C138.976 46.0129 137.949 46.9674 136.491 47.2915C135.032 47.6157 133.699 47.1655 133.501 46.301C133.303 45.4366 134.329 44.4821 135.788 44.158C137.247 43.8338 138.58 44.284 138.778 45.1485Z" fill="url(#paint7_linear_149_1121)"/>
<g style="mix-blend-mode:multiply">
<path d="M111.174 113.637C110.616 115.51 107.41 116.194 104.025 115.186C100.639 114.177 98.3337 111.836 98.892 109.963C99.4502 108.09 102.656 107.406 106.042 108.414C109.427 109.423 111.732 111.764 111.174 113.637Z" fill="#CFD1D2"/>
</g>
<path d="M111.101 113.907C110.597 115.618 107.643 116.267 104.528 115.33C101.412 114.394 99.3053 112.251 99.8275 110.54C100.35 108.829 103.285 108.18 106.401 109.117C109.516 110.053 111.623 112.197 111.101 113.907Z" fill="url(#paint8_linear_149_1121)"/>
<defs>
<linearGradient id="paint0_linear_149_1121" x1="74.812" y1="48.5884" x2="163.669" y2="190.266" gradientUnits="userSpaceOnUse">
<stop stop-color="#9258E2"/>
<stop offset="1" stop-color="#4630BA"/>
</linearGradient>
<radialGradient id="paint1_radial_149_1121" cx="0" cy="0" r="1" gradientUnits="userSpaceOnUse" gradientTransform="translate(117.529 88.3884) scale(97.1229 97.1229)">
<stop stop-color="#9258E2"/>
<stop offset="1" stop-color="#4630BA"/>
</radialGradient>
<radialGradient id="paint2_radial_149_1121" cx="0" cy="0" r="1" gradientUnits="userSpaceOnUse" gradientTransform="translate(134.563 151.582) scale(79.9242 79.9242)">
<stop stop-color="#9258E2"/>
<stop offset="1" stop-color="#4630BA"/>
</radialGradient>
<linearGradient id="paint3_linear_149_1121" x1="152.102" y1="87.9275" x2="158.983" y2="71.1192" gradientUnits="userSpaceOnUse">
<stop stop-color="#9258E2"/>
<stop offset="1" stop-color="#4630BA"/>
</linearGradient>
<linearGradient id="paint4_linear_149_1121" x1="94.0952" y1="83.9757" x2="97.2957" y2="76.9404" gradientUnits="userSpaceOnUse">
<stop stop-color="#9258E2"/>
<stop offset="1" stop-color="#4630BA"/>
</linearGradient>
<linearGradient id="paint5_linear_149_1121" x1="46.622" y1="90.7039" x2="47.2802" y2="87.1903" gradientUnits="userSpaceOnUse">
<stop stop-color="#9258E2"/>
<stop offset="1" stop-color="#4630BA"/>
</linearGradient>
<linearGradient id="paint6_linear_149_1121" x1="66.1009" y1="66.2931" x2="69.0674" y2="63.8592" gradientUnits="userSpaceOnUse">
<stop stop-color="#9258E2"/>
<stop offset="1" stop-color="#4630BA"/>
</linearGradient>
<linearGradient id="paint7_linear_149_1121" x1="136.001" y1="47.4987" x2="137.06" y2="43.822" gradientUnits="userSpaceOnUse">
<stop stop-color="#9258E2"/>
<stop offset="1" stop-color="#4630BA"/>
</linearGradient>
<linearGradient id="paint8_linear_149_1121" x1="102.583" y1="114.676" x2="108.015" y2="108.987" gradientUnits="userSpaceOnUse">
<stop stop-color="#9258E2"/>
<stop offset="1" stop-color="#4630BA"/>
</linearGradient>
</defs>
</svg>
