<svg width="321" height="181" viewBox="0 0 321 181" fill="none" xmlns="http://www.w3.org/2000/svg">
<path d="M293.741 -4.32004C270.311 7.51996 239.421 -0.67004 218.131 14.69C209.051 21.24 202.721 31.55 192.551 36.21C177.961 42.9 159.311 36.2099 145.661 44.6499C139.731 48.31 135.711 54.31 131.491 59.86C116.561 79.5 94.2207 96.37 69.6107 94.6C60.5307 93.95 51.0207 90.84 42.6407 94.3999C30.8507 99.3999 26.5607 115.52 14.4807 119.78C5.65071 122.9 -5.50928 118.84 -12.6993 124.85C-15.6793 127.35 -17.2493 131.09 -18.9193 134.61C-25.5593 148.62 -35.4293 161.08 -47.5493 170.75C-52.8593 174.99 -58.7693 178.77 -65.4193 180.12C-87.5193 184.6 -96.0693 154.57 -96.1593 137.25C-96.3193 107.3 -92.6693 78.1499 -95.2793 48.0399C-96.8893 29.5499 -98.8293 8.48996 -86.2193 -5.13004C-76.8293 -15.27 -62.0793 -17.99 -48.3893 -19.91C64.4307 -35.7 178.861 -34.77 292.451 -43.38C298.841 -43.86 305.471 -44.35 311.461 -42.08C335.651 -32.93 305.191 -10.12 293.731 -4.32004H293.741Z" fill="url(#paint0_linear_149_2016)"/>
<defs>
<linearGradient id="paint0_linear_149_2016" x1="177.031" y1="162.32" x2="63.7607" y2="-15.32" gradientUnits="userSpaceOnUse">
<stop stop-color="#4630BA"/>
<stop offset="1" stop-color="#1A0B4E"/>
</linearGradient>
</defs>
</svg>
