<svg width="15" height="15" viewBox="0 0 145 170" fill="none" xmlns="http://www.w3.org/2000/svg">
<path fill-rule="evenodd" clip-rule="evenodd" d="M16.8363 51.1394C26.2168 49.2003 27.5874 42.1124 25.1769 32.8531H22.9217C18.4891 32.8531 15.8352 30.4001 15.8352 27.026L15.8352 9.83541C16.642 -3.14732 0 -3.40896 0 9.83541L0 37.5845C0 45.0406 6.11434 51.1394 13.5897 51.1394H16.8363Z" fill="#FEB237"/>
<path fill-rule="evenodd" clip-rule="evenodd" d="M119.205 32.8531C116.006 41.2399 120.556 46.7084 127.555 51.1394H130.792C138.267 51.1394 144.391 45.0406 144.391 37.5845V9.83541C144.391 -3.40896 127.739 -3.14732 128.556 9.83541V27.026C128.556 30.4001 125.893 32.8531 121.46 32.8531H119.205Z" fill="#FEB237"/>
<path fill-rule="evenodd" clip-rule="evenodd" d="M139.043 33.6679C139.043 40.8136 133.434 46.7088 126.386 47.1935C126.075 47.2128 125.764 47.2228 125.453 47.2228H122.449C123.898 48.6286 125.628 49.9278 127.543 51.1397H127.553H130.79C138.265 51.1397 144.389 45.041 144.389 37.5849V9.83577C144.389 4.02788 141.191 0.818807 137.672 0.140137C138.527 1.64291 139.043 3.56271 139.043 5.90917V33.6679H139.043Z" fill="#ECA026"/>
<path fill-rule="evenodd" clip-rule="evenodd" d="M15.8393 27.0257L15.8393 9.83512C16.3739 1.16712 9.13195 -1.82879 4.26172 1.0798C6.97375 2.37903 9.03466 5.43305 8.73318 10.1937L8.73318 27.3843C8.73318 30.7584 9.19005 39.7268 19.9123 39.7268H26.2212C26.192 37.6228 25.8228 35.3152 25.181 32.8621C25.181 32.8525 25.181 32.8525 25.181 32.8525H22.9258C18.4932 32.8528 15.8393 30.3998 15.8393 27.0257Z" fill="#ECA026"/>
<path fill-rule="evenodd" clip-rule="evenodd" d="M72.1847 8.12964C40.7863 8.12964 15.0941 33.7554 15.0941 65.0729V84.4064C15.0941 117.857 11.3806 134.718 3.61376 153.586C-2.87977 169.361 12.9943 172.735 20.8877 165.764C23.7166 162.932 27.4297 161.517 31.1431 161.517C34.8565 161.517 38.57 162.932 41.4085 165.764C47.0759 171.406 56.2619 171.406 61.9293 165.764C67.5967 160.111 76.7827 160.111 82.4501 165.764C85.279 168.585 88.9921 170.001 92.7056 170.001C96.419 170.001 100.132 168.585 102.961 165.764C108.628 160.111 117.814 160.111 123.482 165.764C131.375 172.735 147.249 169.361 140.756 153.586C132.989 134.718 129.275 117.857 129.275 84.4064V65.0729C129.276 33.7554 103.583 8.12964 72.1847 8.12964Z" fill="#00F2A6"/>
<path fill-rule="evenodd" clip-rule="evenodd" d="M61.3807 9.58393C92.7888 9.58393 118.481 35.2097 118.481 66.5272V85.8607C118.481 119.311 122.185 136.172 129.952 155.03C132.703 161.711 131.449 166.161 128.493 168.546C136.484 171.067 146.059 166.442 140.761 153.586C132.994 134.718 129.281 117.857 129.281 84.4064V65.0729C129.281 33.7554 103.589 8.12964 72.1903 8.12964C67.7285 8.12964 63.3832 8.64362 59.2129 9.62278C59.9324 9.59356 60.6615 9.58393 61.3807 9.58393Z" fill="#0ED290"/>
<path fill-rule="evenodd" clip-rule="evenodd" d="M102.959 128.395C102.959 119.222 95.4353 111.718 86.239 111.718H83.0993L72.1875 114.059L61.2175 111.718H58.1263C48.9304 111.718 41.4062 119.223 41.4062 128.395V138.682C41.4062 142.201 44.2933 145.071 47.8221 145.071H53.1492L74.3699 135.715L91.2162 145.071H96.5529C100.072 145.071 102.959 142.201 102.959 138.682V128.395Z" fill="#025F80"/>
<path fill-rule="evenodd" clip-rule="evenodd" d="M92.2478 145.073C92.2478 137.694 86.1916 131.654 78.7943 131.654H65.5825C58.1848 131.654 52.1289 137.694 52.1289 145.073H92.2478Z" fill="#FE3D97"/>
<path fill-rule="evenodd" clip-rule="evenodd" d="M58.1263 119.804H86.239C95.435 119.804 102.959 127.309 102.959 136.481V128.395C102.959 119.222 95.4353 111.718 86.239 111.718H83.0993L72.1875 114.059L61.2175 111.718H58.1263C48.9304 111.718 41.4062 119.223 41.4062 128.395V136.481C41.4062 127.309 48.9304 119.804 58.1263 119.804Z" fill="#024C67"/>
<path fill-rule="evenodd" clip-rule="evenodd" d="M71.332 131.683C78.3213 132.148 83.9011 137.995 83.9011 145.073H92.2417C92.2417 137.694 86.1854 131.654 78.7881 131.654H72.2166C71.9247 131.654 71.6236 131.664 71.332 131.683Z" fill="#E41E7F"/>
<path fill-rule="evenodd" clip-rule="evenodd" d="M61.2191 111.718H83.1009V116.847C83.1009 119.669 80.7873 121.986 77.9584 121.986H66.3612C63.5323 121.986 61.2188 119.669 61.2188 116.847L61.2191 111.718Z" fill="#DFF6FD"/>
<path fill-rule="evenodd" clip-rule="evenodd" d="M72.1825 96.6218C89.1845 96.6218 102.959 82.8831 102.959 65.9249C102.959 48.9768 89.1841 35.228 72.1825 35.228C55.1905 35.228 41.4062 48.9768 41.4062 65.9249C41.4062 82.8827 55.1905 96.6218 72.1825 96.6218Z" fill="#DFF6FD"/>
<path fill-rule="evenodd" clip-rule="evenodd" d="M96.134 65.2755C96.134 82.0686 82.6024 95.7104 65.8242 95.9624C67.8752 96.3987 70.0042 96.6218 72.1912 96.6218C89.1932 96.6218 102.967 82.8831 102.967 65.9249C102.967 48.9768 89.1929 35.228 72.1912 35.228C72.0358 35.228 71.8801 35.228 71.7247 35.2377C85.6644 38.1562 96.134 50.4991 96.134 65.2755Z" fill="#C8EFFE"/>
<path fill-rule="evenodd" clip-rule="evenodd" d="M72.1817 48.2014C81.9999 48.2014 89.9613 56.1326 89.9613 65.9252C89.9613 75.7178 81.9999 83.6586 72.1817 83.6586C62.3636 83.6586 54.4121 75.7178 54.4121 65.9252C54.4121 64.0831 54.6844 62.3087 55.2093 60.6409C55.3358 60.2531 55.6273 59.2059 57.0272 60.195C58.009 60.9029 59.2046 61.31 60.5072 61.31C63.8122 61.31 66.4954 58.6338 66.4954 55.3374C66.4954 53.8151 65.922 52.4189 64.9886 51.372C63.861 50.1116 64.8233 49.7723 65.3582 49.5491C67.4576 48.6766 69.7612 48.2014 72.1817 48.2014Z" fill="#025F80"/>
<path fill-rule="evenodd" clip-rule="evenodd" d="M71.7969 48.2014C78.485 50.7418 83.248 57.2087 83.248 64.781C83.248 74.4382 75.5004 82.2917 65.8672 82.5048C67.8308 83.2512 69.9598 83.6586 72.1857 83.6586C82.0039 83.6586 89.9653 75.7178 89.9653 65.9252C89.9653 56.1326 82.0039 48.2014 72.1857 48.2014C72.0596 48.2014 71.9234 48.2014 71.7969 48.2014Z" fill="#024C67"/>
</svg>
