<svg width="50" height="50" viewBox="0 0 50 50" fill="none" xmlns="http://www.w3.org/2000/svg">
<rect width="50" height="50" rx="12" fill="white" fill-opacity="0.05"/>
<rect x="0.5" y="0.5" width="49" height="49" rx="11.5" stroke="white" stroke-opacity="0.13"/>
<path d="M30.1923 28.5L25 33.75M25 33.75L30.1923 39M25 33.75H35.3846C36.6087 33.75 37.7826 33.2583 38.6482 32.3832C39.5137 31.508 40 30.321 40 29.0833V20.9167C40 19.679 39.5137 18.492 38.6482 17.6168C37.7826 16.7417 36.6087 16.25 35.3846 16.25H31.9231M19.8077 21.5L25 16.25M25 16.25L19.8077 11M25 16.25H14.6154C13.3913 16.25 12.2174 16.7417 11.3518 17.6168C10.4863 18.492 10 19.679 10 20.9167V29.0833C10 30.321 10.4863 31.508 11.3518 32.3832C12.2174 33.2583 13.3913 33.75 14.6154 33.75H18.0769" stroke="white" stroke-opacity="0.27" stroke-width="2" stroke-linecap="round" stroke-linejoin="round"/>
</svg>
