<svg width="205" height="239" viewBox="0 0 205 239" fill="none" xmlns="http://www.w3.org/2000/svg">
<path d="M187.479 -51.58C168.899 -33.04 136.979 -31.23 121.529 -10.01C114.939 -0.959991 112.119 10.8 103.899 18.4C92.1191 29.29 72.3091 28.74 61.9591 40.99C57.4591 46.32 55.5091 53.26 53.2191 59.85C45.1291 83.16 29.1491 106.14 5.20914 112.1C-3.62086 114.3 -13.6309 114.31 -20.4909 120.29C-30.1409 128.71 -29.2109 145.36 -39.3609 153.17C-46.7909 158.88 -58.6609 158.49 -63.6209 166.44C-65.6809 169.74 -66.0009 173.79 -66.5009 177.65C-68.4609 193.03 -73.9709 207.94 -82.4709 220.9C-86.2009 226.58 -90.6409 232.01 -96.5509 235.36C-116.171 246.49 -133.621 220.6 -139.091 204.17C-148.551 175.76 -154.141 146.92 -165.981 119.1C-173.251 102.03 -181.651 82.61 -173.891 65.75C-168.121 53.19 -154.941 46.02 -142.531 39.94C-40.2209 -10.13 68.8291 -44.81 174.119 -88.3C180.039 -90.75 186.189 -93.27 192.589 -92.97C218.429 -91.79 196.559 -60.64 187.469 -51.57L187.479 -51.58Z" fill="url(#paint0_linear_149_2017)"/>
<defs>
<linearGradient id="paint0_linear_149_2017" x1="216.079" y1="-312.37" x2="-107.351" y2="182.8" gradientUnits="userSpaceOnUse">
<stop stop-color="#4630BA"/>
<stop offset="1" stop-color="#1A0B4E"/>
</linearGradient>
</defs>
</svg>
